<svg width="45" height="40" viewBox="0 0 45 40" fill="none" xmlns="http://www.w3.org/2000/svg">
<path d="M43.3193 27.1575C44.2147 25.631 43.8037 23.6787 42.8819 22.2578C42.6852 21.9525 42.465 21.6648 42.2302 21.3889C42.1568 21.0689 42.0804 20.7489 42.0012 20.4289C41.7135 19.2664 41.3935 18.1097 41.0471 16.9618C41.0206 16.8738 40.8739 16.8943 40.9003 16.9853C41.3171 18.3622 41.69 19.7507 42.0217 21.1511C41.0441 20.0678 39.8376 19.1783 38.7396 18.2359C37.1837 16.9002 35.6747 15.5087 34.2245 14.0613C32.786 12.6287 31.4033 11.1433 30.0763 9.60789C28.9901 8.3514 27.9421 7.06263 26.9351 5.74156C27.1142 5.72101 27.2933 5.69752 27.4724 5.6711C28.0155 5.59477 28.5674 5.43918 28.9637 5.03699C29.2749 4.71993 29.451 4.28251 29.3336 3.84216C29.2073 3.3607 28.8052 3.00548 28.4118 2.73246C27.9655 2.41834 27.4841 2.14825 26.9938 1.90753C25.9693 1.39965 24.8743 1.04149 23.7558 0.803701C18.7709 -0.250218 13.7567 1.20589 9.03612 2.7354C7.93816 3.09062 6.79031 3.40767 5.80097 4.0183C5.29603 4.32949 4.86448 4.7258 4.53568 5.19552C4.49752 5.19845 4.46229 5.20139 4.42413 5.20433C4.06597 5.22781 3.70487 5.23075 3.34672 5.21313C3.30562 5.14268 3.25865 5.07222 3.21168 5.0047C3.15883 4.92543 3.04435 5.01938 3.09719 5.09864C3.12068 5.13387 3.14416 5.1691 3.16764 5.20433C3.06783 5.19845 2.97095 5.18965 2.87113 5.18084C2.60692 5.15442 2.34565 5.11625 2.08731 5.06928C2.06969 5.00763 2.04914 4.94892 2.02859 4.88727C1.9963 4.7992 1.86126 4.85791 1.89355 4.94892C1.90529 4.97828 1.9141 5.00763 1.92291 5.03699C1.73209 4.99589 1.54126 4.95185 1.35044 4.89901C1.28586 4.8814 1.22421 4.86378 1.15962 4.84323C1.06862 4.81681 1.01577 4.95185 1.10678 4.98121C1.38861 5.06635 1.67631 5.1368 1.96694 5.19552C2.2429 6.29053 1.82603 7.42959 1.47374 8.46296C1.09504 9.56972 0.675227 10.7792 1.03632 11.9476C1.25356 12.6493 1.7174 13.2335 2.00804 13.8999C2.18124 14.2991 2.28106 14.7189 2.33684 15.1505C1.97869 15.1065 1.62053 15.083 1.25943 15.0771C1.20953 15.0771 1.15375 15.127 1.1831 15.1799C1.62933 15.9901 2.01979 16.8297 2.35446 17.6928C2.33978 17.9981 2.3251 18.3005 2.31335 18.6058C2.27812 19.4542 2.24289 20.2997 2.2106 21.1481C2.14014 22.842 2.07263 24.5389 2.00217 26.2328C1.99336 26.4442 1.98456 26.6555 1.97575 26.8669C1.97281 26.9608 2.1196 26.9785 2.12253 26.8816C2.19299 25.173 2.26345 23.4615 2.3339 21.7529C2.38381 20.5199 2.44546 19.284 2.49244 18.051C3.20875 20.0062 3.62855 22.067 3.73423 24.1514C3.22636 24.9969 3.46415 26.0244 3.68726 26.9227C3.70781 26.999 3.82524 27.0049 3.83405 26.9197C3.91037 26.0126 3.92505 25.1025 3.88102 24.1954C4.06597 23.9018 4.33605 23.6523 4.67072 23.5466C5.10521 23.4116 5.53676 23.576 5.89785 23.8167C6.23839 24.0457 6.54664 24.3304 6.85783 24.5976C7.18369 24.8794 7.50955 25.1613 7.83248 25.446C8.48714 26.0243 9.133 26.6144 9.76711 27.2163C12.3036 29.6118 14.6874 32.1688 16.9009 34.8667C18.1456 36.3845 19.3375 37.9463 20.4707 39.5492C20.5265 39.6255 20.641 39.5345 20.5852 39.4552C20.2681 39.0295 20.2446 38.4747 20.4149 37.9844C20.5881 37.4853 20.958 37.089 21.3778 36.7778C22.1558 36.1995 23.1011 35.8003 23.9994 35.448C25.8225 34.7287 27.7395 34.2854 29.6536 33.8862C33.3614 33.117 37.26 32.5211 40.5128 30.4485C40.7359 30.3046 40.956 30.1578 41.1704 30.0022C41.4404 29.8085 41.734 29.5795 42.0775 29.5589C42.6323 29.5296 42.9112 30.0698 43.0169 30.5365C43.1989 31.3233 42.9553 32.4535 43.7949 32.9291C43.8536 32.9614 43.9152 32.9262 43.9123 32.8587C43.7919 30.9505 43.5923 29.0481 43.3193 27.1575ZM43.5013 23.987C43.7274 24.8354 43.7508 25.7601 43.4338 26.5909C43.3898 26.7025 43.3398 26.8141 43.2841 26.9197C43.0228 25.173 42.6969 23.438 42.3065 21.7177C42.8437 22.3899 43.2782 23.1444 43.5013 23.987ZM29.4246 9.07065C30.7192 10.5972 32.0697 12.0798 33.47 13.5094C34.8762 14.9421 36.3353 16.3248 37.8442 17.6517C38.584 18.3034 39.3414 18.9346 40.0959 19.5687C40.8005 20.1588 41.4933 20.7665 42.0951 21.4623C42.1362 21.6325 42.1744 21.8057 42.2125 21.976C38.3227 18.3504 34.4358 14.7219 30.546 11.0963C29.6007 10.2156 28.6613 9.32606 27.7072 8.45122C26.8911 7.70555 26.0309 6.98336 25.024 6.51071C24.8273 6.41677 24.6277 6.33751 24.428 6.26999C24.842 6.13494 25.2618 6.02045 25.6845 5.92944C26.0427 5.85312 26.4008 5.80321 26.7619 5.75917C27.6221 6.88649 28.5086 7.99031 29.4246 9.07065ZM4.23917 5.36285C4.30376 5.35992 4.36541 5.35698 4.42999 5.35111C4.22743 5.6711 4.06891 6.02632 3.96616 6.40503C3.93973 6.50778 3.91625 6.60759 3.8957 6.71034C3.8047 6.24357 3.6579 5.78853 3.42892 5.36285C3.699 5.37459 3.96909 5.37459 4.23917 5.36285ZM9.29446 13.577C9.49996 13.9146 9.9227 14.0878 10.2838 14.1964C10.7682 14.3461 11.2761 14.396 11.7634 14.5399C12.8261 14.8599 13.8008 15.4235 14.6697 16.1075C16.528 17.5754 17.855 19.5482 19.1966 21.4681C19.9129 22.4927 20.6468 23.5114 21.4835 24.442C22.2145 25.2523 23.06 26.1476 24.2196 26.2034C24.8332 26.2328 25.432 26.0655 26.0104 25.8746C26.6415 25.6662 27.2698 25.446 27.898 25.2288C29.225 24.7737 30.5519 24.3216 31.8789 23.8666C32.7831 23.5554 33.7694 23.1973 34.3859 22.4281C35.0347 21.6179 35.0083 20.5199 34.5621 19.6216C33.47 17.4198 30.6576 17.1262 28.8287 15.814C28.3325 15.4558 27.9068 15.0155 27.443 14.6162C27.0026 14.2346 26.5241 13.9146 25.9928 13.6768C24.9682 13.2129 23.835 13.0427 22.7194 12.9634C22.1264 12.9194 21.5305 12.9017 20.9375 12.89C20.3474 12.8783 19.7309 12.8871 19.179 13.119C18.8942 13.2394 18.6447 13.4214 18.4509 13.6415C17.7493 13.5388 17.0418 13.4683 16.3313 13.4214C15.0103 13.3362 13.6863 13.3568 12.3623 13.3039C11.3729 13.2628 10.366 13.1689 9.39427 12.9546C9.45299 12.8166 9.56161 12.6874 9.71134 12.5876C9.93738 12.435 10.1987 12.344 10.4511 12.2471C10.7741 12.1238 11.0999 12.0034 11.4258 11.886C12.0276 11.6717 12.6353 11.4691 13.2459 11.2783C15.7589 10.5003 18.3452 9.95136 20.958 9.64018C22.1851 9.49339 23.4358 9.39945 24.6658 9.56972C25.8665 9.73705 26.9469 10.198 27.9156 10.926C28.8404 11.6218 29.6418 12.4614 30.5343 13.1953C31.4444 13.9439 32.4366 14.578 33.4142 15.2327C35.2901 16.4892 37.1631 17.8719 38.0321 20.0355C38.4137 20.9867 38.5957 22.0494 38.3814 23.0652C38.1701 24.0633 37.5565 24.9117 36.7198 25.4842C34.9349 26.6996 32.6597 26.6526 30.6047 26.8992C29.5244 27.0284 28.4235 27.2397 27.4518 27.7535C26.5153 28.2467 25.8577 29.0834 24.9858 29.6617C24.5807 29.9318 24.1022 30.1343 23.606 30.0316C23.0541 29.9171 22.6842 29.4679 22.3995 29.0129C22.1088 28.5491 21.8475 28.0676 21.554 27.6038C21.2692 27.1546 20.9698 26.7172 20.6586 26.2886C18.1339 22.8156 14.7461 19.9709 10.8915 18.0803C9.92564 17.6077 8.93337 17.1996 7.91761 16.8444C6.87544 16.4774 5.75987 16.1134 4.95843 15.3149C3.5669 13.9263 3.7724 11.8155 3.90744 10.0218C3.9368 9.63137 3.96909 9.23211 3.98671 8.82992C4.30964 9.91026 5.01714 10.8761 5.94482 11.5866C6.91654 12.3322 8.02624 12.7843 9.18878 13.0573C9.17117 13.2335 9.19465 13.4155 9.29446 13.577ZM18.2777 15.3501C18.8883 16.3424 20.1243 16.4363 21.1371 16.7328C22.1705 17.0352 23.1334 17.5636 23.9495 18.2653C24.3722 18.6264 24.7539 19.0344 25.0886 19.4807C25.4174 19.9181 25.6493 20.4025 25.9399 20.8634C26.1718 21.2245 26.4977 21.5357 26.9469 21.5709C27.352 21.6032 27.7512 21.4124 28.0448 21.1452C28.7817 20.4759 28.7846 19.4895 28.3296 18.6557C27.8158 17.7104 26.894 17.0029 26.0221 16.404C24.1462 15.1182 21.9767 14.3256 19.7573 13.8764C19.3786 13.8001 18.9999 13.7326 18.6212 13.6768C18.6535 13.6445 18.6887 13.6093 18.7269 13.5799C19.2289 13.1513 19.9012 13.0515 20.5411 13.0427C21.1224 13.0339 21.7066 13.0632 22.285 13.0926C23.4387 13.1542 24.61 13.2863 25.6904 13.7149C26.2335 13.9322 26.7326 14.2258 27.1847 14.5956C27.6779 15.0008 28.1153 15.4676 28.6231 15.8551C29.5626 16.5655 30.684 16.9618 31.7409 17.458C32.7948 17.9541 33.8927 18.6117 34.427 19.692C34.6824 20.2087 34.8087 20.8017 34.7118 21.3742C34.6208 21.9114 34.3155 22.3723 33.9045 22.7187C33.0561 23.4321 31.8906 23.7198 30.8631 24.0692C29.5626 24.5154 28.2621 24.9587 26.9615 25.4049C25.7814 25.81 24.4222 26.4295 23.2156 25.7836C22.6666 25.4901 22.2204 25.0291 21.7976 24.577C21.3896 24.1396 21.005 23.6787 20.6351 23.2061C19.1614 21.3125 17.9519 19.2106 16.3108 17.4492C14.8429 15.8697 13.0522 14.5898 10.8974 14.1993C10.4658 14.1201 9.99316 14.0085 9.63794 13.7414C9.40015 13.5623 9.31501 13.3274 9.35611 13.1043C10.3631 13.3274 11.4052 13.4214 12.4327 13.4625C13.7274 13.5124 15.025 13.4948 16.3196 13.577C16.9978 13.621 17.6759 13.6885 18.3482 13.7854C18.0311 14.2258 17.9431 14.8041 18.2777 15.3501ZM18.5067 13.7971C18.9206 13.8588 19.3346 13.9292 19.7456 14.0144C21.9826 14.4694 24.1726 15.2767 26.0515 16.5949C26.9527 17.226 27.9597 18.0011 28.3619 19.0667C28.5527 19.5746 28.5732 20.1324 28.2914 20.608C28.0507 21.016 27.625 21.3654 27.1436 21.4153C26.5564 21.4769 26.1924 21.019 25.934 20.5551C25.6757 20.0942 25.4144 19.6451 25.0856 19.2282C24.4427 18.4179 23.6383 17.7369 22.7312 17.2378C22.282 16.9883 21.8064 16.7827 21.3132 16.6301C20.7555 16.4569 20.1713 16.3717 19.6193 16.1721C19.0704 15.9754 18.5302 15.6261 18.2953 15.0683C18.1104 14.6191 18.2219 14.1553 18.5067 13.7971ZM2.36913 17.3259C2.0785 16.6066 1.74382 15.9079 1.37392 15.2268C1.70272 15.2356 2.02859 15.2621 2.35152 15.3032C2.38088 15.5909 2.39262 15.8844 2.39555 16.1721C2.39555 16.5538 2.38381 16.9413 2.36913 17.3259ZM2.48656 15.1681C2.4572 14.9186 2.41024 14.672 2.34565 14.4283C2.24877 14.0672 2.10198 13.7296 1.92584 13.4038C1.74969 13.0808 1.55594 12.7667 1.39155 12.4379C1.10385 11.8566 0.998153 11.2431 1.06274 10.5972C1.12439 9.98365 1.31228 9.38771 1.50897 8.80644C1.88181 7.6938 2.38381 6.49603 2.14015 5.3012C2.13428 5.27478 2.1284 5.2513 2.12253 5.22488C2.29868 5.25717 2.47482 5.28359 2.6539 5.30708C2.85352 5.33056 3.05608 5.34818 3.25571 5.35992C3.58451 5.92944 3.75185 6.55181 3.82524 7.19767C3.79295 7.57344 3.8135 7.94627 3.87515 8.3103C3.86634 9.10294 3.77533 9.90439 3.72543 10.6589C3.60506 12.435 3.62855 14.4048 5.11108 15.6496C5.93895 16.3453 6.99874 16.68 8.00275 17.0323C9.02731 17.3934 10.0284 17.8132 11.0001 18.2976C12.9758 19.281 14.8224 20.5199 16.4899 21.9643C18.1427 23.394 19.6164 25.0262 20.8641 26.8199C21.1899 27.2867 21.4982 27.7652 21.7918 28.2526C22.0589 28.6988 22.2938 29.1832 22.6372 29.5795C22.9308 29.9171 23.3154 30.1696 23.7704 30.2077C24.2078 30.243 24.6247 30.0756 24.9887 29.8466C25.8988 29.2771 26.5652 28.3993 27.5223 27.8915C28.5263 27.363 29.6624 27.1605 30.778 27.0313C32.8065 26.7994 35.0083 26.8053 36.7756 25.6339C37.5771 25.1025 38.1965 24.3216 38.4636 23.391C38.7367 22.4487 38.6545 21.4417 38.3668 20.514C38.0644 19.5335 37.5389 18.6205 36.8696 17.8484C36.1268 16.9912 35.2109 16.2895 34.2832 15.6437C33.3174 14.9714 32.3163 14.349 31.368 13.6504C30.411 12.9458 29.5684 12.112 28.6672 11.34C27.7923 10.5884 26.8382 9.95136 25.7168 9.63724C24.5807 9.31725 23.3829 9.29083 22.2116 9.37303C19.6164 9.55211 17.0183 10.0688 14.5141 10.7587C13.2753 11.0992 12.0511 11.4955 10.8445 11.9447C10.3748 12.1208 9.79353 12.2647 9.43244 12.6346C9.35024 12.7197 9.28566 12.8166 9.24456 12.9223C7.99688 12.6287 6.81379 12.1297 5.80391 11.2783C5.00246 10.6031 4.35954 9.71063 4.09533 8.68607C4.06304 8.56277 4.03661 8.43654 4.01606 8.3103C4.01899 7.94627 4.00726 7.58518 3.96909 7.22996C4.019 6.58998 4.21276 5.96174 4.5533 5.41569C4.56798 5.39221 4.58559 5.36579 4.60027 5.3423C5.0054 5.30707 5.40759 5.24836 5.80391 5.16322C6.3206 5.05167 6.82847 4.89901 7.32167 4.70525C7.81193 4.5115 8.28752 4.27664 8.73668 4.00068C8.79539 3.96546 8.85117 3.93023 8.90695 3.895C8.93924 3.87445 8.94218 3.81867 8.91869 3.79225C8.89227 3.75702 8.84823 3.75996 8.81594 3.78051C8.37852 4.0594 7.91761 4.30013 7.43909 4.49976C6.96057 4.69938 6.46445 4.86085 5.9595 4.97828C5.5485 5.07515 5.13163 5.14268 4.71183 5.18378C5.34007 4.34416 6.30298 3.84803 7.27176 3.484C8.45485 3.04071 9.67317 2.67668 10.8797 2.30385C15.6532 0.830122 20.914 -0.276638 25.7608 1.54056C26.3127 1.749 26.8529 1.99266 27.3725 2.27449C27.8892 2.55632 28.4529 2.8675 28.8521 3.31079C29.2631 3.76876 29.3424 4.35884 28.9343 4.84617C28.5087 5.35405 27.8393 5.48322 27.2111 5.55661C27.0819 5.57129 26.9527 5.5889 26.8236 5.60652C26.6269 5.34817 26.4302 5.0869 26.2364 4.82855C26.0896 4.62893 25.9429 4.43223 25.799 4.23261C25.7432 4.15628 25.6287 4.25022 25.6845 4.32655C26.0045 4.7669 26.3274 5.20139 26.6562 5.63294C25.8137 5.75624 24.9946 5.93825 24.1844 6.2054C23.5238 6.01458 22.8427 5.95293 22.1617 5.97935C22.8721 5.52138 23.744 4.78158 23.4534 3.8539C23.107 2.75595 21.7565 2.73833 20.8347 2.90273C19.4814 3.14346 18.1339 3.42822 16.7835 3.69244C15.48 3.94784 14.1736 4.19151 12.8731 4.46453C11.7194 4.70525 10.5627 4.99589 9.48528 5.48615C8.52237 5.92357 7.50368 6.53126 6.97819 7.48243C6.74334 7.90517 6.63178 8.39544 6.7404 8.87396C6.84022 9.31431 7.10442 9.69008 7.43909 9.98953C8.24348 10.7088 9.39134 11.02 10.4394 11.1433C10.9385 11.202 11.4375 11.2137 11.9366 11.1844C11.9483 11.2343 12.0071 11.2754 12.054 11.2284C12.0716 11.2108 12.0922 11.1902 12.1098 11.1726C13.9358 11.0376 15.7325 10.3917 17.3706 9.62256C19.5724 8.58919 21.642 7.274 23.9378 6.44319C24.0229 6.41384 24.108 6.38154 24.1932 6.35219C24.2989 6.38448 24.4045 6.41971 24.5102 6.45787C25.5612 6.84832 26.4625 7.54702 27.2962 8.28388C28.2239 9.10588 29.1164 9.96898 30.0205 10.8115C31.9464 12.6082 33.8751 14.4048 35.801 16.2044L42.1978 22.1727C39.7818 24.2453 36.9811 25.8042 34.0571 27.0342C31.0657 28.2907 27.9509 29.2184 24.8302 30.0991C24.017 30.3281 23.2068 30.5806 22.3818 30.7538C21.507 30.9387 20.5911 30.9974 19.7397 30.6774C18.31 30.1373 17.3588 28.8074 16.5251 27.595C14.5963 24.7855 12.7909 21.8468 10.3601 19.4337C8.22587 17.3082 5.51327 15.582 2.48656 15.1681ZM18.2308 6.93639C16.9038 7.47656 15.6415 8.16645 14.4731 8.99138C13.5278 9.49633 12.6705 10.1422 12.0217 11.0229C11.3318 11.0699 10.639 11.0434 9.955 10.9143C8.88933 10.7176 7.54771 10.2684 7.02516 9.22331C6.4615 8.09599 7.35103 6.97749 8.24054 6.34925C9.24456 5.63881 10.4247 5.21313 11.6049 4.90195C12.8291 4.58195 14.0797 4.36471 15.3185 4.12105C16.7012 3.85096 18.081 3.58088 19.4638 3.31079C20.1125 3.18456 20.7672 3.01429 21.4277 2.96144C22.0472 2.9086 22.74 3.02897 23.1422 3.55446C23.9025 4.54673 22.6813 5.49202 21.8593 5.98816C20.6145 6.08504 19.3727 6.46961 18.2308 6.93639ZM21.5804 6.14962C19.907 7.08024 18.0282 7.54408 16.2433 8.20755C15.9703 8.3103 15.6943 8.41892 15.4242 8.53342C16.1112 8.1048 16.8245 7.72023 17.5614 7.38262C18.7973 6.81896 20.183 6.30815 21.5804 6.14962ZM14.5494 9.11469C15.2334 8.75066 15.9615 8.46002 16.6895 8.20168C18.4568 7.5705 20.3092 7.08905 21.9297 6.11733C22.6108 6.07036 23.289 6.11146 23.9495 6.27879C23.882 6.30228 23.8115 6.3287 23.744 6.35219C22.5815 6.78373 21.4688 7.33858 20.3709 7.91105C18.1838 9.05303 16.0084 10.2743 13.5718 10.7968C13.1461 10.8879 12.7175 10.9554 12.283 10.9965C12.9876 10.3125 13.745 9.68128 14.5494 9.11469ZM3.71956 26.4324C3.56984 25.7719 3.47589 25.0702 3.74598 24.4479C3.76946 25.1113 3.75772 25.7719 3.71956 26.4324ZM43.1226 30.3486C43.0228 30.0169 42.8466 29.6764 42.5296 29.5061C42.1127 29.2859 41.6753 29.4767 41.3171 29.7175C40.8944 30.0022 40.4863 30.3017 40.046 30.563C39.6144 30.8184 39.1682 31.0503 38.7132 31.2617C37.7855 31.6932 36.8226 32.0396 35.8421 32.3302C31.9581 33.481 27.8569 33.7981 24.064 35.263C23.5268 35.4715 22.9983 35.7004 22.4846 35.9588C21.9914 36.2054 21.4923 36.4725 21.0696 36.8336C20.4854 37.3327 20.0509 38.14 20.1859 38.8945C18.172 36.0997 15.9879 33.4341 13.6422 30.9123C12.3946 29.5736 11.1058 28.2731 9.77298 27.0196C9.10951 26.3942 8.4343 25.7807 7.75028 25.1789C7.4068 24.8765 7.06332 24.58 6.71691 24.2835C6.40573 24.0193 6.09748 23.7404 5.73345 23.5496C5.04649 23.1885 4.32137 23.3852 3.86927 23.9605C3.74304 21.8087 3.28214 19.6803 2.50711 17.6693C2.51885 17.3435 2.53059 17.0147 2.5394 16.6888C2.55114 16.2367 2.55115 15.7787 2.50711 15.3266C5.23145 15.7142 7.72386 17.1849 9.73776 19.0344C12.2771 21.3683 14.1325 24.3216 16.0554 27.1517C16.8862 28.3759 17.7434 29.7263 19.0469 30.4984C19.7015 30.8859 20.4296 31.0708 21.187 31.0532C22.0912 31.0327 22.966 30.7743 23.8321 30.5336C26.9439 29.6646 30.0587 28.7751 33.0678 27.595C36.0358 26.4324 38.9128 24.9734 41.4316 23.0006C41.7223 22.7745 42.007 22.5397 42.2859 22.2989C42.6353 23.8989 42.9318 25.5106 43.1696 27.1311C43.1608 27.1487 43.149 27.1634 43.1402 27.181C43.1079 27.2339 43.1461 27.2896 43.1931 27.2985C43.2899 27.9649 43.3751 28.6342 43.4543 29.3035C43.5864 30.4426 43.6863 31.5846 43.7626 32.7295C43.0815 32.204 43.3398 31.0826 43.1226 30.3486Z" fill="#333333"/>
<path d="M43.6982 27.3777C44.5525 25.6897 44.3294 23.8226 43.3694 22.2167C42.7 21.0953 42.3801 20.0854 42.0366 18.8201C41.8634 18.1801 41.7958 16.8972 41.1735 16.5244C40.9621 16.3982 40.7008 16.4833 40.5717 16.6829C40.2986 17.0998 40.6627 17.7251 40.7801 18.1361C41.0766 19.1724 41.3437 20.2175 41.5962 21.2656C41.8428 21.1217 42.0865 20.9808 42.3331 20.837C39.9963 18.3592 37.1604 16.3453 34.7325 13.941C32.0698 11.3047 29.598 8.4835 27.314 5.51257C27.1878 5.73275 27.0615 5.95293 26.9324 6.17604C27.9217 6.04687 29.0784 5.88834 29.598 4.90488C30.0589 4.03884 29.6361 3.19043 28.9639 2.60329C26.6124 0.551227 22.8752 -0.0417855 19.872 0.0022501C16.2992 0.0550928 12.8175 1.0591 9.43849 2.13651C7.99118 2.59741 6.39416 2.98199 5.1641 3.91848C4.60925 4.34122 4.5065 4.92543 3.73441 4.78158C3.50836 4.74048 3.37626 4.58195 3.10911 4.54966C2.9359 4.52911 2.71279 4.69938 2.68343 4.87259C2.64527 5.10157 2.65114 5.22781 2.78031 5.4245C2.90654 5.20432 3.03278 4.98414 3.16196 4.76103C2.85077 4.73461 2.56307 4.67589 2.36931 4.61718C2.28418 4.59076 2.15207 4.46452 2.04932 4.42342C1.88786 4.35884 1.62364 4.46452 1.55319 4.62599C1.46805 4.81681 1.42695 4.94598 1.49447 5.15148C1.67648 4.96946 1.85556 4.79039 2.03758 4.60837C1.61483 4.51443 1.24493 4.30306 0.842741 4.50562C0.616691 4.62011 0.590276 4.90194 0.684219 5.10744C0.760547 5.27478 0.895583 5.28065 0.989526 5.39808C1.13338 5.43624 1.2743 5.47734 1.41815 5.51551C1.66474 5.98228 1.68529 6.46374 1.47979 6.96281C1.23906 8.01379 0.748801 8.99138 0.560915 10.06C0.193952 12.1267 1.59135 13.3333 1.91721 15.2621C2.05812 15.0771 2.19904 14.8892 2.34289 14.7043C1.7763 14.6514 0.924947 14.3843 0.757612 15.1035C0.66954 15.4852 1.18916 16.0958 1.31833 16.3835C1.78217 17.4081 1.89079 18.2653 1.84676 19.3632C1.77923 20.9925 1.71465 22.6219 1.64713 24.2512C1.61484 25.0291 1.17448 26.6232 1.73814 27.2544C1.90841 27.4423 2.1873 27.3983 2.3605 27.2544C2.6482 27.0166 2.57188 26.6555 2.58949 26.3091C2.63646 25.3609 2.66875 24.4097 2.70692 23.4615C2.78031 21.659 2.86544 19.8535 2.9359 18.051C2.6482 18.0891 2.36051 18.1302 2.06987 18.1684C2.73334 20.059 3.5113 22.4164 3.13847 24.4185C2.98874 25.2258 2.79205 26.7847 3.54359 27.363C3.69919 27.4834 3.94579 27.4159 4.07789 27.2955C4.52412 26.8786 4.32449 25.81 4.34797 25.2875C4.32155 24.9323 4.33917 24.5829 4.40669 24.2336C4.82943 24.2218 5.25511 24.2101 5.67785 24.2013C6.1505 24.3481 6.81397 25.1407 7.19855 25.4754C8.93062 26.9931 10.601 28.5843 12.1981 30.24C13.8509 31.9545 15.4303 33.7423 16.9304 35.5918C17.8053 36.6722 18.6507 37.776 19.4698 38.9004C19.7751 39.3231 20.01 39.9367 20.5736 39.9983C20.7439 40.0189 20.9729 39.8486 20.9993 39.6754C21.0228 39.5198 20.9553 39.3613 20.9699 39.2321C20.6705 38.4424 20.8114 37.8112 21.3898 37.3386C21.7127 37.0655 22.0591 36.8336 22.429 36.634C23.5739 35.9852 24.8832 35.5536 26.1397 35.1867C28.6116 34.4586 31.1657 34.0741 33.6757 33.5016C35.9714 32.979 38.2671 32.295 40.3074 31.0914C40.6333 30.8976 41.0296 30.5101 41.3937 30.3839C42.4212 30.0228 42.5738 30.6804 42.6854 31.5171C42.7793 32.2304 42.8967 32.7853 43.4868 33.2433C43.6424 33.3636 43.8391 33.4223 44.0211 33.3108C44.0593 33.2873 44.0974 33.2638 44.1385 33.2403C44.2648 33.164 44.3675 33.0143 44.3558 32.8587C44.2237 30.9123 44.0182 28.9747 43.7452 27.043C43.6659 26.4853 42.8175 26.723 42.8967 27.2779C43.0376 28.279 43.1639 29.283 43.2666 30.2899C43.2872 30.4896 43.5426 32.5739 43.5808 32.5534C43.7598 32.5768 43.936 32.6003 44.1151 32.6209C43.1874 31.9046 43.8039 30.469 43.067 29.6C42.5503 28.9894 41.8692 29.0775 41.2322 29.4298C39.8172 30.2136 38.5959 31.0826 37.0429 31.6404C35.5545 32.1747 34.0133 32.5416 32.4691 32.8704C29.4042 33.5192 26.2924 34.0212 23.3831 35.2307C22.3439 35.6652 21.1373 36.1672 20.4298 37.092C20.145 37.4648 19.9395 37.8934 19.8896 38.3661C19.8573 38.6949 20.1744 39.282 20.1509 39.4493C20.2918 39.3407 20.4327 39.235 20.5766 39.1264C20.5854 39.1264 19.6988 37.7378 19.599 37.6028C19.2555 37.1448 18.9091 36.6898 18.5568 36.2377C17.6673 35.0957 16.7484 33.9742 15.8002 32.8792C13.9976 30.7978 12.0894 28.8045 10.0843 26.9139C9.13611 26.0185 8.16439 25.1466 7.17506 24.2952C6.61141 23.8108 6.00078 23.1767 5.22282 23.0857C4.59751 23.0123 3.8812 23.3176 3.57295 23.893C3.39094 24.2306 3.4614 24.2629 3.46433 24.7503C3.46433 25.0233 3.63166 26.5205 3.45846 26.6819C3.63753 26.6585 3.81368 26.635 3.99276 26.6144C3.58469 26.3032 4.1601 24.4391 4.17184 24.2218C4.20413 23.6552 4.09845 23.0505 4.02505 22.4898C3.81955 20.9338 3.44085 19.4249 2.92123 17.9453C2.75683 17.4814 2.07574 17.5519 2.05519 18.0627C1.99941 19.4865 1.93189 20.9103 1.87318 22.3342C1.84088 23.0945 1.81152 23.8549 1.77923 24.6123C1.76749 24.8677 1.87905 26.5264 1.73814 26.6438C1.94657 26.6438 2.15207 26.6438 2.3605 26.6438C2.19904 26.4647 2.53664 24.0222 2.54839 23.6993C2.59829 22.5132 2.64526 21.3272 2.69517 20.1412C2.72746 19.3544 2.95058 18.3445 2.78325 17.5871C2.70692 17.2378 2.46325 16.7916 2.31059 16.4598C2.15794 16.1222 1.99941 15.7905 1.82914 15.4617C1.72933 15.6907 1.89666 15.7376 2.33995 15.6026C2.65114 15.6319 2.80673 15.3002 2.76563 15.0448C2.64527 14.3373 2.43096 13.7384 2.09335 13.1072C1.44163 11.8948 1.23319 10.926 1.58547 9.56091C1.98473 8.01086 2.66582 6.72208 2.39573 5.08689C2.37225 4.94598 2.22546 4.81094 2.08749 4.77864C1.87905 4.70231 1.66768 4.66709 1.45043 4.67589C1.39759 4.87552 1.34475 5.07809 1.2919 5.27771C1.1275 5.35991 1.79391 5.4656 1.80859 5.46853C2.11978 5.53899 2.46032 5.26303 2.3517 4.92543C2.34289 4.97827 2.33115 5.02818 2.32234 5.08102C2.15794 5.14854 1.9906 5.21606 1.8262 5.28358C1.77336 5.25423 1.72052 5.22487 1.66767 5.19258C1.71171 5.32762 1.82327 5.4744 1.97593 5.50083C2.37518 5.56835 2.7715 5.62119 3.17369 5.65348C3.50249 5.67991 3.72855 5.25716 3.55534 4.99001C3.5524 5.03405 3.54947 5.07515 3.54653 5.11919C3.40562 5.22781 3.2647 5.33349 3.12085 5.44211C2.7715 5.39808 3.15315 5.60945 3.23535 5.64761C3.44378 5.74449 4.27165 5.70046 4.43017 5.65348C5.09951 5.45679 5.41364 4.80507 6.03014 4.40581C7.11048 3.70418 8.46678 3.38712 9.68509 2.99667C10.924 2.60328 12.1658 2.21577 13.4252 1.88991C16.0673 1.20002 18.8093 0.724432 21.5483 0.938739C22.9046 1.04442 24.2521 1.30277 25.532 1.76367C26.128 1.97798 26.7122 2.23632 27.2641 2.54457C27.5841 2.71778 27.8953 2.9086 28.1947 3.11703C28.547 4.65534 28.1272 5.3834 26.9412 5.30413C26.6564 5.33936 26.3305 5.66816 26.5595 5.9676C28.776 8.8534 31.1539 11.6042 33.7226 14.1817C36.265 16.7358 39.2535 18.8583 41.7166 21.4681C42.0278 21.7999 42.5533 21.4535 42.4534 21.0395C42.2861 20.3408 42.1129 19.6421 41.925 18.9493C41.8722 18.7497 41.288 17.2143 41.3408 17.135C41.1412 17.1879 40.9386 17.2407 40.739 17.2936C40.9827 17.4403 41.2527 19.2693 41.3291 19.557C41.4993 20.2028 41.5639 21.016 41.8575 21.6179C42.201 22.3166 42.7734 22.8362 43.0553 23.5906C43.4809 24.7238 43.5044 25.8423 42.9466 26.9432C42.6824 27.4394 43.4428 27.8856 43.6982 27.3777Z" fill="#333333"/>
<path d="M43.076 24.1044C43.2844 24.9969 43.2874 25.8482 42.9028 26.6966C43.1699 26.7319 43.44 26.7671 43.7072 26.8023C43.44 25.0556 43.1141 23.3235 42.7296 21.6002C42.4624 21.7147 42.1923 21.8263 41.9252 21.9408C42.4389 22.6101 42.8294 23.2853 43.076 24.1044C43.2374 24.6446 44.0888 24.4156 43.9244 23.8695C43.6602 22.9918 43.2404 22.2197 42.6826 21.4946C42.389 21.1129 41.7608 21.3155 41.8782 21.8351C42.2657 23.5584 42.5916 25.2904 42.8558 27.0372C42.9116 27.4012 43.5105 27.4746 43.6602 27.1429C44.1475 26.0655 44.1886 25.0174 43.9215 23.8725C43.7982 23.3176 42.9468 23.5495 43.076 24.1044Z" fill="#333333"/>
<path d="M29.1136 9.38477C31.1246 11.7421 33.2501 13.9968 35.5076 16.1222C36.5322 17.0851 37.5802 18.0216 38.6547 18.9287C39.5706 19.7038 41.5023 20.8399 41.79 22.0934C42.0366 21.9496 42.2803 21.8087 42.5269 21.6648C39.3328 18.6851 36.1388 15.7053 32.9448 12.7285C31.4387 11.3253 29.9445 9.91026 28.4326 8.5158C27.2553 7.43253 26.0723 6.40503 24.5516 5.84724C24.5516 6.12907 24.5516 6.41383 24.5516 6.69566C25.3237 6.45787 26.084 6.29054 26.8854 6.18485C26.7211 6.11733 26.5537 6.04981 26.3893 5.98229C27.2671 7.13602 28.1772 8.2692 29.1136 9.38477C29.4777 9.81925 30.1 9.19395 29.736 8.7624C28.8465 7.70555 27.9834 6.63401 27.1438 5.539C27.0088 5.36285 26.8649 5.30707 26.6477 5.33643C25.8462 5.44505 25.0829 5.60945 24.3138 5.84724C23.8793 5.98229 23.9145 6.54888 24.3138 6.69566C26.1016 7.35326 27.4579 8.80937 28.8201 10.0805C30.2644 11.431 31.7088 12.7784 33.1532 14.1259C36.0683 16.8473 38.9864 19.5658 41.9016 22.2872C42.2274 22.5925 42.7353 22.2901 42.6384 21.8586C42.3742 20.7107 41.2792 19.9944 40.4102 19.2576C39.1684 18.2066 37.9296 17.1615 36.7347 16.0576C34.2541 13.7707 31.929 11.3282 29.7389 8.75946C29.3661 8.32791 28.7467 8.95322 29.1136 9.38477Z" fill="#333333"/>
<path d="M4.23952 5.80319C4.3041 5.80026 4.36575 5.79732 4.43034 5.79145C4.3041 5.57127 4.17787 5.3511 4.0487 5.12798C3.76981 5.58008 3.57899 6.07328 3.47037 6.5929C3.75219 6.5929 4.03696 6.5929 4.31879 6.5929C4.21604 6.08502 4.0487 5.60063 3.80797 5.14266C3.68173 5.36284 3.5555 5.58302 3.42633 5.80613C3.69935 5.81494 3.96943 5.812 4.23952 5.80319C4.80317 5.77971 4.80611 4.899 4.23952 4.92248C3.96943 4.93422 3.69935 4.93423 3.42926 4.92542C3.07991 4.91368 2.90084 5.30412 3.04762 5.58889C3.25312 5.98227 3.38229 6.39621 3.47037 6.83069C3.5555 7.25343 4.23365 7.2505 4.31879 6.83069C4.41273 6.37859 4.56538 5.97053 4.80905 5.57715C4.97638 5.30412 4.76208 4.89313 4.42741 4.91368C4.36282 4.91661 4.30117 4.92248 4.23658 4.92542C3.67586 4.9489 3.67293 5.82962 4.23952 5.80319Z" fill="#333333"/>
<path d="M8.98335 13.8881C9.59104 14.5399 10.3162 14.6367 11.1558 14.8452C12.6031 15.2063 13.8214 15.9284 14.937 16.9119C16.8921 18.6352 18.2132 20.9309 19.7545 23.0006C20.7761 24.3745 22.0678 26.3062 23.8938 26.6027C25.8431 26.9168 28.2122 25.5928 30.0089 24.9763C31.6088 24.4273 33.9046 24.0193 34.888 22.4721C35.7247 21.154 35.255 19.4777 34.2422 18.4003C33.0473 17.1292 31.2977 16.7299 29.8239 15.905C27.9803 14.8775 26.9058 13.3069 24.7481 12.8019C22.6931 12.3175 20.5236 12.2559 18.5655 12.9604C17.3942 13.3832 15.6239 12.937 14.3557 12.9105C12.7293 12.8782 11.1235 12.8489 9.52058 12.5289C9.60865 12.7432 9.69673 12.9605 9.7848 13.1748C10.3279 12.3117 12.7117 11.8977 13.6453 11.6188C15.0867 11.1843 16.5457 10.8233 18.0253 10.5414C20.8113 10.0071 24.1228 9.32605 26.7679 10.7058C27.948 11.3223 28.864 12.3293 29.8621 13.1865C30.7839 13.9791 31.782 14.6573 32.789 15.3325C34.9585 16.7857 37.3276 18.4121 37.9324 21.1335C38.8248 25.1378 34.7354 26.0625 31.7409 26.3443C29.6595 26.541 27.719 26.8375 26.0692 28.2173C25.8989 28.3612 25.7374 28.5138 25.5672 28.6577C24.7452 29.3505 24.933 29.3182 23.7911 29.0364C22.5551 28.7311 22.5845 28.3817 21.9533 27.3836C21.3104 26.3678 20.5882 25.3961 19.8102 24.4772C18.3483 22.7481 16.6602 21.2098 14.8166 19.8975C12.5356 18.2741 10.0696 17.182 7.46266 16.2103C5.72472 15.5644 4.48879 14.5751 4.29797 12.6052C4.1776 11.3546 4.37723 10.0776 4.44768 8.82991C4.15998 8.86808 3.87229 8.90918 3.58166 8.94734C4.45356 11.4574 6.60249 12.843 9.09197 13.483C8.98335 13.3421 8.87766 13.2012 8.76904 13.0573C8.76317 13.3626 8.76611 13.4008 8.87473 13.6914C9.07143 14.2169 9.92278 13.9909 9.72315 13.4566C9.69966 13.3245 9.67324 13.1894 9.64976 13.0573C9.65269 12.8665 9.51178 12.6786 9.32683 12.6317C7.16028 12.0739 5.20216 10.9231 4.43301 8.71248C4.26861 8.24277 3.59633 8.32497 3.56697 8.82991C3.43193 11.2401 2.86828 14.1494 4.97905 15.905C5.79812 16.586 6.83442 16.9119 7.81788 17.2671C9.54701 17.8924 11.2057 18.6498 12.7792 19.604C15.7002 21.3801 18.2866 23.7404 20.2976 26.5087C21.5775 28.2702 22.7166 31.7637 25.4086 29.9083C26.7532 28.9806 27.6779 27.9296 29.3513 27.5509C30.8455 27.2133 32.3927 27.2339 33.9016 26.9755C36.2942 26.5674 38.6604 25.2669 38.9099 22.6101C39.1712 19.8506 37.2777 17.5402 35.2256 15.9637C34.1159 15.1094 32.9123 14.396 31.7791 13.5769C30.3817 12.5671 29.2309 11.2284 27.7865 10.2831C24.9741 8.4424 21.466 9.02954 18.3453 9.58732C16.352 9.94255 14.3821 10.4387 12.4563 11.0699C11.4024 11.4133 9.67031 11.7098 9.02739 12.7315C8.88354 12.9604 9.01564 13.3245 9.2916 13.3773C11.7987 13.8764 14.341 13.6885 16.8745 13.8999C17.403 13.9439 18.0547 14.1347 18.5802 14.0643C19.273 13.9733 19.7045 13.3656 20.5031 13.3245C21.6597 13.2687 22.9103 13.3509 24.0465 13.5535C26.5066 13.9909 27.7484 15.8815 29.8738 16.9148C31.6265 17.7662 34.7794 18.6675 34.4066 21.2039C34.157 22.9125 32.1431 23.3147 30.7722 23.7844C29.6184 24.1778 28.4676 24.5712 27.3139 24.9675C25.7374 25.5077 24.1463 26.2651 22.6784 25.0291C21.7155 24.2189 20.9346 23.1297 20.2007 22.1199C18.7857 20.1823 17.5204 18.0979 15.7502 16.4539C15.0162 15.7729 14.2001 15.1505 13.3077 14.6955C12.2156 14.1377 10.4453 14.1582 9.6116 13.2628C9.21821 12.8489 8.59584 13.4742 8.98335 13.8881Z" fill="#333333"/>
<path d="M17.899 15.5703C18.445 16.2954 19.0997 16.636 19.9657 16.8855C21.5305 17.3317 22.9161 17.8102 24.0963 18.9992C24.8801 19.7889 25.3175 21.3448 26.3714 21.8468C27.1876 22.2373 28.1152 21.8175 28.6319 21.1423C29.9031 19.4777 28.2973 17.5666 26.9997 16.5567C24.6041 14.6925 21.7095 13.7267 18.7445 13.2394C18.8091 13.4859 18.8736 13.7296 18.9382 13.9762C19.7573 13.2129 21.2662 13.4625 22.2879 13.5212C23.3799 13.5858 24.4662 13.7032 25.4907 14.1113C27.2316 14.807 28.4206 16.407 30.1497 17.2114C31.8935 18.0246 35.9712 19.786 33.6813 22.2461C32.9327 23.0505 31.7614 23.2971 30.7515 23.6347C29.7739 23.9635 28.8022 24.3011 27.8246 24.6358C26.9762 24.9264 26.1072 25.3168 25.2265 25.4959C23.653 25.813 22.7546 24.9851 21.8152 23.9253C20.4002 22.3312 19.3022 20.4935 18.0164 18.7996C17.0917 17.5813 16.073 16.4275 14.8429 15.5087C14.2029 15.0301 13.5189 14.6191 12.782 14.305C12.2947 14.0966 9.86982 13.7003 9.80524 13.0955C9.62029 13.2364 9.4324 13.3773 9.24746 13.5212C12.2477 14.1201 15.3273 13.8177 18.357 14.2169C18.2307 13.9968 18.1045 13.7766 17.9753 13.5535C17.5761 14.2845 17.579 14.8188 17.899 15.5703C18.1192 16.0899 18.8795 15.6408 18.6593 15.127C18.6828 14.7512 18.7092 14.3755 18.7327 13.9968C18.9059 13.6768 18.6799 13.3773 18.3511 13.3333C15.4036 12.9458 12.3975 13.2511 9.47644 12.6698C9.22397 12.6199 8.88637 12.7902 8.91866 13.0955C9.08599 14.6514 10.9472 14.5457 12.1186 14.9832C14.2675 15.7846 15.9203 17.5049 17.2796 19.2898C18.5566 20.9661 19.6545 22.7804 21.0373 24.3774C22.1117 25.6192 23.2273 26.6731 24.977 26.4353C26.9967 26.1594 29.0517 25.1319 30.9805 24.4831C32.4307 23.9958 34.3272 23.5407 34.9877 21.9701C36.5613 18.2183 30.9188 16.9736 28.9108 15.4881C28.0213 14.8276 27.3167 13.9997 26.3098 13.4977C25.5171 13.1043 24.6423 12.8929 23.7675 12.7726C22.1264 12.5465 19.6604 12.0915 18.31 13.348C18.0839 13.5593 18.1749 14.0291 18.5037 14.0848C20.4472 14.4019 22.3583 14.898 24.1256 15.7846C24.9623 16.2044 25.7637 16.7035 26.4977 17.2877C26.85 17.5666 27.1993 17.8513 27.487 18.1978C27.8099 18.5089 28.0066 18.8818 28.0712 19.3133C28.5028 20.288 27.8246 20.5727 26.0397 20.1647C25.6199 19.874 25.25 18.9346 24.8595 18.5207C24.3282 17.957 23.7087 17.4638 23.0423 17.0734C21.7682 16.3277 19.5518 16.313 18.6535 15.1211C18.3217 14.6778 17.5555 15.1182 17.899 15.5703Z" fill="#333333"/>
<path d="M18.3894 14.2228C20.2184 14.5105 22.0268 14.9597 23.7089 15.7523C24.5749 16.1604 25.4028 16.6506 26.169 17.2202C26.5448 17.499 26.9147 17.7926 27.2288 18.139C27.4578 18.3651 27.6486 18.6205 27.8013 18.9052C28.3884 20.1764 28.1565 20.6608 27.1085 20.3643C26.0927 20.332 26.2483 20.1441 25.7698 19.4366C25.5701 19.143 25.3441 18.8465 25.1063 18.5823C24.6395 18.0568 24.0994 17.6018 23.5152 17.2113C22.8722 16.7827 22.1647 16.4422 21.4279 16.2103C20.5442 15.9343 17.9314 15.6907 18.8826 14.0232C19.1644 13.53 18.4041 13.0867 18.1223 13.5799C16.5722 16.2925 20.4826 16.6624 22.0473 17.3904C23.8704 18.2359 24.5984 19.6128 25.7639 21.1217C26.3011 21.8175 27.0703 22.0641 27.8688 21.6208C30.1087 20.3731 28.3532 17.8337 26.9998 16.7563C24.5896 14.8393 21.6304 13.85 18.6213 13.3773C18.0694 13.2863 17.8316 14.1347 18.3894 14.2228Z" fill="#333333"/>
<path d="M2.79483 17.2084C2.48659 16.4569 2.14311 15.72 1.75559 15.0037C1.62936 15.2239 1.50312 15.4441 1.37394 15.6672C1.70274 15.6789 2.02568 15.7053 2.35154 15.7435C2.20475 15.5967 2.05797 15.4499 1.91118 15.3031C1.97577 15.9754 1.95522 16.6506 1.9288 17.3258C1.90531 17.8924 2.78602 17.8924 2.80951 17.3258C2.83593 16.6506 2.85648 15.9754 2.7919 15.3031C2.76841 15.0448 2.60695 14.8921 2.35154 14.8628C2.02568 14.8246 1.70274 14.7982 1.37394 14.7865C1.02753 14.7747 0.842586 15.1652 0.992307 15.4499C1.34166 16.0987 1.66164 16.7622 1.94347 17.4433C2.15778 17.96 3.00914 17.731 2.79483 17.2084Z" fill="#333333"/>
<path d="M2.90926 15.0507C2.80651 14.3784 2.59514 13.7883 2.30451 13.1806C1.6704 11.8596 1.30637 11.0699 1.72618 9.58441C2.14011 8.11949 2.89752 6.66925 2.55111 5.10746C2.36909 5.28947 2.19001 5.46855 2.008 5.65056C2.91513 5.78854 3.13825 5.84725 3.32907 6.83659C3.50815 7.76721 3.43182 8.79177 3.36137 9.73413C3.25862 11.1051 3.10596 12.523 3.49641 13.8647C4.3507 16.8151 7.62107 17.2172 10.046 18.3269C13.3369 19.833 16.2931 22.0435 18.6887 24.7532C19.8043 26.0156 20.7437 27.3748 21.6126 28.8133C22.2086 29.7997 22.9073 30.7949 24.2049 30.6187C25.3527 30.4632 26.1777 29.4092 27.0408 28.7546C28.6789 27.5128 30.7251 27.4981 32.6861 27.2838C35.0553 27.0254 37.7796 26.3561 38.7572 23.8989C39.7553 21.383 38.3374 18.5647 36.5114 16.8385C35.4046 15.7934 34.0953 14.9861 32.8388 14.1377C31.3181 13.1102 30.0352 11.8508 28.6026 10.7147C25.7138 8.41893 22.2057 8.76535 18.7679 9.34955C16.7541 9.69303 14.7636 10.1862 12.8173 10.7998C11.5696 11.1932 9.64085 11.5161 8.86875 12.6963C9.03315 12.6287 9.20048 12.5612 9.36488 12.4937C7.9029 12.1179 6.48202 11.5073 5.47507 10.333C4.59142 9.29964 3.73126 6.4755 5.00829 5.7357C5.32535 5.55075 6.07689 5.55956 6.44092 5.45974C6.98696 5.31296 7.52126 5.11333 8.03501 4.87554C8.54875 4.63481 9.29736 4.42344 9.36488 3.78639C9.3913 3.53392 9.13883 3.36952 8.92452 3.34603C8.49591 3.302 8.04969 3.73061 7.69447 3.90088C6.75798 4.35592 5.74809 4.61426 4.71766 4.73756C4.82041 4.98709 4.9261 5.23956 5.02884 5.4891C6.63174 3.60437 9.71129 3.08769 11.9982 2.42422C14.3908 1.72846 16.8451 1.1648 19.3434 1.05325C21.8857 0.938753 24.4691 1.30865 26.7648 2.44477C27.0819 2.6033 27.7072 2.8176 27.942 3.10824C28.4939 4.35885 28.3384 5.01351 27.4811 5.07516C27.0584 5.14562 26.7736 4.98709 26.6268 4.59958C26.2834 4.2561 26.2335 3.83336 25.708 3.77465C25.5377 3.7541 25.3087 3.92437 25.2823 4.09757C25.1795 4.78159 25.9017 5.34525 26.2834 5.84725C26.3714 5.63295 26.4595 5.41571 26.5476 5.2014C25.7696 5.32763 24.9682 5.60359 24.1873 5.63882C23.5209 5.66818 22.8457 5.52726 22.1704 5.5302C22.2438 5.80322 22.3172 6.07624 22.3935 6.3522C23.1392 5.84138 23.97 5.16617 23.9524 4.1739C23.9348 3.23154 23.1803 2.61504 22.3172 2.4389C21.0725 2.18349 19.6516 2.66789 18.445 2.90861C16.5515 3.28732 14.6492 3.62786 12.7615 4.03299C10.6038 4.49389 6.80202 5.38635 6.32643 8.03729C6.12974 9.12937 6.69339 10.0424 7.58584 10.6471C8.12895 11.017 8.77774 11.2548 9.41479 11.4045C9.63791 11.4574 11.7017 11.5807 11.6753 11.5484C11.7751 11.6746 11.96 11.6893 12.1039 11.6629C13.5982 11.384 15.1336 11.0523 16.5838 10.4475C18.3716 9.70183 20.0391 8.7125 21.777 7.85821C23.148 7.183 23.97 6.53421 25.3645 7.36208C26.4037 7.97858 27.2874 8.84755 28.1651 9.66661C29.8532 11.2401 31.5353 12.8196 33.2234 14.396C36.1121 17.091 39.0038 19.786 41.8925 22.481C41.8925 22.2725 41.8925 22.067 41.8925 21.8586C38.6691 24.5683 34.8703 26.3796 30.9159 27.7623C28.9607 28.4463 26.9703 29.0276 24.977 29.5971C22.5638 30.2841 20.2446 31.1237 18.2219 29.0746C16.9038 27.7359 15.9555 25.9422 14.8958 24.4009C13.8125 22.8244 12.6822 21.2656 11.3846 19.8594C9.03021 17.3083 6.0769 15.3032 2.60102 14.7454C2.04617 14.6573 1.80837 15.5057 2.36616 15.5938C6.94586 16.3277 10.2984 19.5746 12.9494 23.1709C14.2 24.8648 15.3009 26.6585 16.5309 28.3641C17.4439 29.6323 18.5448 30.8976 20.1419 31.247C21.9033 31.6345 23.8027 30.8477 25.4702 30.3721C27.7219 29.7292 29.9677 29.0599 32.1636 28.2467C35.9037 26.861 39.4471 25.0556 42.5119 22.481C42.691 22.3312 42.6734 22.0113 42.5119 21.8586C38.4519 18.0715 34.3859 14.2933 30.3346 10.5003C28.7405 9.00901 27.1435 7.16832 25.1238 6.24064C23.4622 5.47736 21.4042 7.04502 19.9364 7.81418C18.8648 8.3749 17.805 8.95323 16.6983 9.44643C15.9702 9.76936 15.2187 10.06 14.4525 10.2831C13.7156 10.4974 12.7938 10.4563 12.1098 10.7323C11.461 10.9906 12.6323 10.8996 11.9366 10.744C11.2936 10.6002 10.545 10.7352 9.87276 10.606C9.64378 10.562 9.41186 10.5092 9.18875 10.4387C8.0585 10.0805 7.78254 9.83688 7.55649 8.69195C7.35686 7.69088 7.23356 7.68207 7.91758 7.00099C8.22583 6.69274 8.61041 6.44614 8.98618 6.2289C9.62323 5.86193 10.3278 5.59772 11.0265 5.38048C12.3916 4.95186 13.8242 4.71701 15.2246 4.44399C16.6278 4.17097 18.0282 3.88914 19.4314 3.61612C20.1448 3.4752 20.9404 3.24328 21.6714 3.27264C21.9033 3.28145 22.42 3.31961 22.602 3.46346C23.7205 4.33243 22.5169 5.2014 21.9385 5.59772C21.5921 5.83551 21.7007 6.41972 22.1616 6.41972C22.8809 6.41678 23.606 6.67219 24.3018 6.63109C25.0944 6.58118 25.9722 6.1878 26.7736 6.05863C27.0349 6.01753 27.1964 5.62414 27.0378 5.41277C27.032 5.4069 26.1278 4.32362 26.1248 4.34124C25.9839 4.44986 25.843 4.55554 25.6992 4.66417C25.5935 4.65242 26.3685 5.7357 26.4419 5.83258C26.53 5.94707 26.6621 6.07037 26.8235 6.04982C28.3031 5.86193 30.7427 4.84912 29.1633 3.00256C27.5222 1.08554 24.0346 0.404456 21.6743 0.213635C18.5859 -0.0329638 15.477 0.55124 12.509 1.3703C9.88157 2.09542 6.25304 2.69431 4.39767 4.87554C4.18043 5.13094 4.29198 5.67698 4.70885 5.62708C5.4281 5.54194 6.12974 5.41864 6.82257 5.19553C7.29815 5.04287 8.54582 4.19739 8.91866 4.23555C8.77187 4.08877 8.62509 3.94198 8.4783 3.7952C8.51353 3.47227 7.80309 4.02125 7.58584 4.124C7.14255 4.32656 6.67284 4.49096 6.20313 4.62013C5.67764 4.76398 4.75289 4.68178 4.33602 5.00177C3.49935 5.64469 3.45237 7.39437 3.57567 8.31618C3.95144 11.1022 6.64055 12.7109 9.12709 13.3509C9.32378 13.4008 9.5146 13.3157 9.62322 13.1484C10.3072 12.1032 12.9787 11.66 14.1002 11.337C15.7089 10.8732 17.3441 10.4857 18.9969 10.2038C22.329 9.63725 25.6052 9.35249 28.356 11.657C29.2954 12.4438 30.1614 13.3069 31.1478 14.0379C32.4542 15.0067 33.878 15.8081 35.1463 16.8297C37.3392 18.5941 39.6526 22.3283 37.1014 24.8149C34.9408 26.9227 31.4443 26.2122 28.7552 26.952C27.7365 27.2309 26.9028 27.7153 26.0984 28.3876C25.1913 29.145 24.1785 30.4602 22.7752 29.0481C22.3436 28.6137 22.0442 27.8181 21.7154 27.3102C18.8267 22.8479 14.5846 19.284 9.68781 17.2202C8.19647 16.5919 6.24129 16.2749 5.10518 15.0419C4.0219 13.8676 4.0718 12.1502 4.16575 10.6618C4.25088 9.32607 4.45345 7.93161 4.17455 6.6076C3.86043 5.12507 3.61383 5.01645 2.23699 4.80801C1.90231 4.75811 1.61756 4.9959 1.69389 5.35112C2.11076 7.22117 0.648772 8.99139 0.607672 10.8468C0.572443 12.5025 1.80837 13.7003 2.05497 15.2973C2.14598 15.8433 2.99734 15.6055 2.90926 15.0507Z" fill="#333333"/>
<path d="M18.0077 6.55474C16.6691 7.12133 15.4772 7.83765 14.25 8.60974C13.8273 8.87689 13.3987 9.10587 13.0024 9.41118C12.5062 9.79576 12.1128 10.3946 11.5022 10.6001C10.187 11.0434 6.98416 9.82512 7.35113 8.09892C7.65938 6.65749 9.86409 5.88247 11.0589 5.5155C13.6512 4.71699 16.4048 4.36471 19.0617 3.83628C19.7721 3.69536 20.7115 3.35189 21.4249 3.39886C22.9074 3.49867 23.1247 4.80213 21.9181 5.4245C21.4044 5.68871 20.6968 5.69458 20.1479 5.82962C19.4492 5.99989 18.7769 6.24943 18.1105 6.50777C17.5879 6.71033 17.8169 7.56462 18.3454 7.35619C20.004 6.71033 22.2029 6.81896 23.3595 5.31294C24.067 4.39406 23.8733 3.22859 22.7636 2.72071C21.2194 2.0132 18.8239 2.98492 17.2738 3.29024C14.984 3.7394 12.5972 4.04178 10.3866 4.808C8.98631 5.29239 7.33058 6.05861 6.66417 7.47949C6.01832 8.85634 6.81389 10.1128 8.06744 10.7587C9.08907 11.2871 11.2791 11.9212 12.333 11.3282C12.6648 11.1433 12.9583 10.5884 13.2725 10.3183C13.839 9.83099 14.5084 9.46109 15.1396 9.06477C16.2052 8.39249 17.2914 7.80535 18.454 7.31216C18.9736 7.09491 18.5244 6.3375 18.0077 6.55474Z" fill="#333333"/>
<path d="M21.3573 5.76799C19.4344 6.78668 17.309 7.27988 15.3068 8.10775C15.4213 8.3749 15.5329 8.64498 15.6474 8.91213C17.5057 7.77895 19.5284 6.87181 21.6979 6.57237C22.2556 6.49604 22.0178 5.64469 21.463 5.72395C19.2289 6.03514 17.1152 6.98631 15.2011 8.15472C14.796 8.40425 15.0632 9.15873 15.5417 8.9591C17.6143 8.10187 19.8102 7.58519 21.8035 6.52834C22.3026 6.26412 21.8593 5.50378 21.3573 5.76799Z" fill="#333333"/>
<path d="M14.7727 9.49633C16.2053 8.77121 17.7348 8.33379 19.2408 7.79949C20.8261 7.23584 22.0943 6.34632 23.8352 6.70447C23.8352 6.42264 23.8352 6.13788 23.8352 5.85605C19.9131 7.27106 16.5223 10.0717 12.2832 10.562C12.3859 10.8115 12.4916 11.064 12.5944 11.3135C13.2813 10.6559 14.0006 10.0541 14.7727 9.49633C15.2277 9.16753 14.7873 8.40131 14.3294 8.73598C13.4986 9.3378 12.7177 9.98072 11.972 10.6882C11.7136 10.9319 11.8957 11.4838 12.2832 11.4398C16.6398 10.9378 20.0452 8.15765 24.0671 6.70447C24.4429 6.56943 24.528 5.95 24.0671 5.85605C23.3743 5.7122 22.5082 5.4979 21.8125 5.69459C20.9494 5.93825 20.101 6.55182 19.2467 6.863C17.5939 7.46482 15.9029 7.94041 14.3264 8.73598C13.8215 8.99139 14.2677 9.75174 14.7727 9.49633Z" fill="#333333"/>
<path d="M4.14253 26.315C4.01336 25.722 3.9429 25.1436 4.16895 24.5653C3.88125 24.5271 3.59355 24.486 3.30292 24.4479C3.32347 25.1084 3.31466 25.7689 3.2765 26.4324C3.2442 26.999 4.12491 26.9961 4.15721 26.4324C4.19537 25.7719 4.20418 25.1113 4.18363 24.4479C4.16601 23.9283 3.49668 23.8813 3.3176 24.3304C3.03577 25.0497 3.12972 25.813 3.29118 26.5469C3.41448 27.1018 4.2629 26.8698 4.14253 26.315Z" fill="#333333"/>
<path d="M43.5455 30.2312C42.6853 28.0148 41.0178 29.4944 39.6028 30.3075C37.0018 31.7989 34.0015 32.4036 31.0951 32.9937C28.5029 33.5192 25.8901 34.0241 23.4359 35.0428C21.7332 35.7503 19.6165 36.7367 19.7428 38.8915C20.0158 38.8182 20.2888 38.7448 20.5648 38.6684C17.8757 34.9606 14.9135 31.4583 11.6608 28.2291C10.0843 26.6643 8.46378 25.0702 6.7141 23.6993C5.65137 22.8685 4.59159 22.616 3.55528 23.6406C3.80482 23.7433 4.05729 23.849 4.30682 23.9517C4.20701 22.5661 4.01031 21.198 3.6639 19.8506C3.47014 19.099 3.16483 18.371 3.03566 17.6077C2.90942 16.8561 2.99163 16.0782 2.94172 15.3149C2.75677 15.4558 2.56888 15.5967 2.38393 15.7406C7.02822 16.5127 10.3896 19.8682 13.0435 23.5349C14.2589 25.2141 15.3363 26.9961 16.5663 28.6635C17.4793 29.9024 18.6037 31.062 20.1655 31.3908C21.9357 31.7607 23.8175 30.9857 25.4938 30.5072C27.7396 29.8672 29.9766 29.1978 32.1667 28.3905C35.9332 26.999 39.5001 25.1906 42.5855 22.5954C42.3389 22.5309 42.0952 22.4663 41.8486 22.4017C42.5855 25.8306 43.064 29.2067 43.3106 32.7148C43.5602 32.6121 43.8126 32.5064 44.0622 32.4036C43.5895 31.8928 43.6835 30.9035 43.5455 30.2312C43.431 29.6764 42.5826 29.9112 42.6971 30.4661C42.8937 31.4202 42.7499 32.2803 43.4486 33.0348C43.6981 33.3049 44.2266 33.1053 44.2001 32.7236C44.1209 31.5787 44.024 30.4367 43.8919 29.2977C43.8332 28.7957 43.7715 28.2936 43.7011 27.7916C43.6746 27.592 43.5044 26.8728 43.5572 27.2074C43.6101 27.5274 43.6101 27.1517 43.5983 27.0665C43.5337 26.5968 43.4574 26.1271 43.3781 25.6603C43.1844 24.4919 42.9554 23.3323 42.7059 22.1756C42.6295 21.8263 42.2068 21.7823 41.969 21.9819C38.725 24.7092 34.9028 26.5234 30.9249 27.912C28.9756 28.5931 26.994 29.1773 25.0065 29.738C22.6374 30.4103 20.3211 31.2705 18.2896 29.3505C16.9538 28.0881 16.0174 26.2974 14.9899 24.7914C13.9036 23.2002 12.7851 21.6208 11.4934 20.1882C9.13312 17.5695 6.15338 15.4852 2.62172 14.898C2.36044 14.854 2.04339 15.0125 2.06394 15.3237C2.10504 15.9431 2.09036 16.5567 2.08155 17.1761C2.07274 17.8807 2.3076 18.371 2.52191 19.055C3.02098 20.652 3.30575 22.2901 3.42611 23.9576C3.45253 24.3275 3.89289 24.5506 4.17765 24.2688C4.6092 23.8402 6.16805 24.3921 6.57612 24.7414C6.86382 24.988 7.15152 25.2376 7.43629 25.4871C8.05278 26.0302 8.66047 26.5821 9.25936 27.1429C10.5276 28.3289 11.7606 29.556 12.9554 30.8213C15.4185 33.4341 17.6966 36.2083 19.8073 39.1147C20.0393 39.4347 20.6558 39.3701 20.6294 38.8915C20.5031 36.7162 23.7999 35.7738 25.4322 35.2483C27.3609 34.626 29.3543 34.2414 31.3359 33.8392C33.2206 33.4576 35.1141 33.07 36.9372 32.4418C37.7739 32.1541 38.5988 31.8194 39.3914 31.4202C39.9257 31.1501 42.242 29.2742 42.7029 30.4631C42.8996 30.9886 43.751 30.7626 43.5455 30.2312Z" fill="#333333"/>
</svg>
