<svg width="16" height="15" viewBox="0 0 16 15" fill="none" xmlns="http://www.w3.org/2000/svg">
<path fill-rule="evenodd" clip-rule="evenodd" d="M11.333 5.33332C11.333 4.96513 11.6315 4.66666 11.9997 4.66666H12.6663C13.5504 4.66666 14.3982 5.01785 15.0234 5.64297C15.6485 6.26809 15.9997 7.11593 15.9997 7.99999C15.9997 8.88404 15.6485 9.73189 15.0234 10.357C14.3982 10.9821 13.5504 11.3333 12.6663 11.3333H11.9997C11.6315 11.3333 11.333 11.0348 11.333 10.6667C11.333 10.2985 11.6315 9.99999 11.9997 9.99999H12.6663C13.1968 9.99999 13.7055 9.78928 14.0806 9.4142C14.4556 9.03913 14.6663 8.53042 14.6663 7.99999C14.6663 7.46956 14.4556 6.96085 14.0806 6.58578C13.7055 6.2107 13.1968 5.99999 12.6663 5.99999H11.9997C11.6315 5.99999 11.333 5.70151 11.333 5.33332Z" fill="#EB5757"/>
<path fill-rule="evenodd" clip-rule="evenodd" d="M0.666504 5.33332C0.666504 4.96513 0.964981 4.66666 1.33317 4.66666H11.9998C12.368 4.66666 12.6665 4.96513 12.6665 5.33332V11.3333C12.6665 12.2174 12.3153 13.0652 11.6902 13.6903C11.0651 14.3155 10.2172 14.6667 9.33317 14.6667H3.99984C3.11578 14.6667 2.26794 14.3155 1.64281 13.6903C1.01769 13.0652 0.666504 12.2174 0.666504 11.3333V5.33332ZM1.99984 5.99999V11.3333C1.99984 11.8638 2.21055 12.3725 2.58562 12.7475C2.9607 13.1226 3.4694 13.3333 3.99984 13.3333H9.33317C9.8636 13.3333 10.3723 13.1226 10.7474 12.7475C11.1225 12.3725 11.3332 11.8638 11.3332 11.3333V5.99999H1.99984Z" fill="#EB5757"/>
<path fill-rule="evenodd" clip-rule="evenodd" d="M3.99967 0C4.36786 0 4.66634 0.298477 4.66634 0.666667V2.66667C4.66634 3.03486 4.36786 3.33333 3.99967 3.33333C3.63148 3.33333 3.33301 3.03486 3.33301 2.66667V0.666667C3.33301 0.298477 3.63148 0 3.99967 0Z" fill="#EB5757"/>
<path fill-rule="evenodd" clip-rule="evenodd" d="M6.66667 0C7.03486 0 7.33333 0.298477 7.33333 0.666667V2.66667C7.33333 3.03486 7.03486 3.33333 6.66667 3.33333C6.29848 3.33333 6 3.03486 6 2.66667V0.666667C6 0.298477 6.29848 0 6.66667 0Z" fill="#EB5757"/>
<path fill-rule="evenodd" clip-rule="evenodd" d="M9.33317 0C9.70136 0 9.99984 0.298477 9.99984 0.666667V2.66667C9.99984 3.03486 9.70136 3.33333 9.33317 3.33333C8.96498 3.33333 8.6665 3.03486 8.6665 2.66667V0.666667C8.6665 0.298477 8.96498 0 9.33317 0Z" fill="#EB5757"/>
</svg>
