<svg width="27" height="42" viewBox="0 0 27 42" fill="none" xmlns="http://www.w3.org/2000/svg">
<path d="M26.4187 3.71248C26.3423 3.70702 26.2632 3.70156 26.1868 3.69338C26.0586 3.51604 25.7557 3.46148 25.5866 3.647C22.8938 3.43692 20.2038 3.22685 17.5111 3.01678C17.4511 2.91584 17.3474 2.83945 17.2273 2.83126C13.4488 2.57481 9.6811 2.1874 5.9298 1.66904C5.66789 1.63357 5.50693 1.87093 5.52057 2.10283L6.54911 18.3821C6.89286 23.8085 7.23389 29.2349 7.57764 34.6613C7.6022 35.0351 7.62402 35.4089 7.64858 35.7826C7.66767 36.0773 7.7086 36.3719 7.86138 36.6284C8.21877 37.2204 8.91447 37.1768 9.5174 37.1686L14.0408 37.1004C14.2263 37.0976 14.4527 36.9885 14.4527 36.7675C14.4391 31.3329 14.3873 25.901 14.2918 20.4664C14.2454 17.7355 14.1854 15.0018 14.1172 12.2709C14.0844 10.9122 14.0462 9.55631 14.008 8.19766C13.9917 7.60836 14.0244 6.96178 13.757 6.41613C13.5361 5.96325 13.1377 5.64678 12.6767 5.46399C12.2292 5.28665 11.7382 5.22118 11.2607 5.17753C10.7833 5.13387 10.2813 5.11205 9.81205 5.23482C9.31006 5.3685 8.88719 5.67133 8.67711 6.15696C8.44249 6.69987 8.52433 7.33281 8.54616 7.90574L8.85172 16.0276C8.95266 18.734 9.05634 21.4404 9.15728 24.1495L9.31006 28.2091C9.33461 28.8939 9.3619 29.5787 9.38645 30.2635C9.40555 30.7927 9.38645 31.3957 9.75476 31.824C10.0931 32.2141 10.6332 32.2769 11.0943 32.0886C11.6181 31.8758 11.9155 31.3902 12.0383 30.8582C12.1747 30.2607 12.1228 29.6223 12.1256 29.0139C12.1283 28.3292 12.131 27.6471 12.1338 26.9623C12.1419 24.2559 12.1529 21.5523 12.161 18.8459C12.1638 18.1938 12.1665 17.5391 12.1665 16.887C12.1665 16.6851 12.0492 16.4969 11.8337 16.4751C11.6481 16.456 11.4217 16.606 11.4217 16.8079C11.4135 19.3888 11.4026 21.9697 11.3944 24.5506C11.389 25.8247 11.3862 27.1015 11.3808 28.3755C11.378 28.9839 11.3971 29.5978 11.3671 30.2034C11.3453 30.6372 11.2744 31.1638 10.8406 31.3793C10.4068 31.5948 10.2104 31.2456 10.1613 30.8555C10.0903 30.2826 10.1067 29.6905 10.0849 29.1149C10.0358 27.8381 9.98939 26.564 9.94028 25.2872C9.84206 22.7036 9.74657 20.1227 9.64836 17.5391C9.55287 14.9882 9.45466 12.4373 9.35917 9.88369C9.33461 9.23165 9.31006 8.57688 9.28551 7.92484C9.26641 7.44467 9.15182 6.80627 9.40282 6.3643C9.60744 6.00418 10.0549 5.9196 10.4314 5.89777C10.8515 5.87049 11.2853 5.92233 11.7 5.98508C12.1065 6.04783 12.5675 6.1515 12.8731 6.4516C13.2278 6.79809 13.2332 7.34373 13.2496 7.8048C13.2905 9.09524 13.3233 10.3857 13.356 11.6761C13.4215 14.2352 13.476 16.797 13.5252 19.3561C13.6206 24.5069 13.6779 29.6605 13.6998 34.8114C13.7025 35.327 13.7025 35.8427 13.7052 36.3583L10.1476 36.4101C9.83933 36.4156 9.53104 36.421 9.22548 36.4238C9.0236 36.4265 8.73986 36.4538 8.57071 36.3201C8.42066 36.2028 8.41248 35.96 8.39611 35.7881C8.3661 35.4634 8.35246 35.136 8.33336 34.8114L7.83137 26.8586C7.4958 21.5577 7.16023 16.2568 6.82739 10.9559C6.64732 8.12672 6.46999 5.29757 6.28993 2.46841C9.77113 2.93766 13.266 3.29779 16.769 3.54333C16.2534 8.00941 15.9205 12.4973 15.7841 16.9907C15.6422 21.6314 15.7023 26.2803 15.9642 30.9155C16.1033 33.3927 16.3025 35.8645 16.5589 38.3308C12.9741 38.9146 9.39191 39.4985 5.80703 40.0823C5.2914 35.1415 5.28594 30.1652 5.40871 25.2026C5.53148 20.1009 5.78248 15.0018 5.73883 9.90007C5.71427 7.02998 5.59696 4.16263 5.31323 1.30619C5.28322 1.00882 4.92036 0.918783 4.70756 1.07702C3.55898 1.92004 2.2167 2.4575 0.806216 2.65666C0.547036 2.69212 0.44882 2.95949 0.52521 3.18047C1.24 5.25937 1.50191 7.46104 1.5974 9.64634C1.69289 11.878 1.63559 14.1179 1.61922 16.3523C1.58649 21.0503 1.54011 25.7483 1.42552 30.4435C1.36004 33.0872 1.27274 35.7308 1.1527 38.3717C1.14997 38.4399 1.16361 38.4972 1.18544 38.549C1.19362 38.6554 1.24273 38.7564 1.33276 38.8137C2.41313 39.5203 3.49624 40.2242 4.57661 40.9308C4.74576 41.0426 4.97766 41.0208 5.10043 40.8517C5.12771 40.8135 5.14953 40.7698 5.16045 40.7207C5.24229 40.8407 5.3978 40.909 5.53694 40.8871C9.26368 40.2787 12.9931 39.6731 16.7199 39.0647C16.7226 39.1493 16.7499 39.2338 16.799 39.2938C16.9381 39.4684 17.1537 39.4575 17.3256 39.3484C19.8546 37.7688 22.9047 37.0758 25.8676 37.3786C26.0913 37.4005 26.3396 37.1849 26.2768 36.9449C26.004 35.9081 25.9085 34.8387 25.8621 33.7719C25.813 32.6643 25.7912 31.5566 25.7585 30.449C25.693 28.2337 25.6248 26.0184 25.5593 23.803C25.4911 21.555 25.4229 19.3097 25.3574 17.0616C25.2919 14.9009 25.1965 12.7374 25.1746 10.5739C25.1555 8.49504 25.2756 6.37248 26.0422 4.42454C26.1431 4.43272 26.2414 4.44091 26.3423 4.44909C26.8225 4.49547 26.9016 3.75067 26.4187 3.71248ZM5.01858 40.3333C3.97913 39.6567 2.94241 38.9774 1.90296 38.3008C2.11303 33.5973 2.22489 28.8912 2.28764 24.185C2.32037 21.8196 2.33947 19.457 2.35857 17.0916C2.37494 14.8109 2.42678 12.5246 2.3613 10.2411C2.29309 7.90301 2.05574 5.56493 1.35732 3.3278C2.51954 3.10954 3.62992 2.6703 4.62844 2.03735C5.07042 6.90994 5.0404 11.8098 4.91218 16.696C4.77577 21.7951 4.53569 26.8941 4.61208 31.9959C4.653 34.8005 4.78941 37.6024 5.08678 40.3906C5.06769 40.3715 5.04586 40.3497 5.01858 40.3333ZM24.4271 9.66271C24.3998 11.8289 24.5171 14.0006 24.5826 16.164C24.719 20.6738 24.8527 25.1808 24.9891 29.6905C25.0273 30.9455 25.06 32.2005 25.1037 33.4555C25.1392 34.5086 25.2046 35.5671 25.4229 36.5984C22.6019 36.4156 19.7728 37.0867 17.3228 38.4918C16.8454 33.9438 16.5617 29.3741 16.4798 24.7988C16.398 20.1909 16.5153 15.5775 16.8345 10.9777C17.0009 8.5687 17.2246 6.16514 17.5002 3.76704C20.0865 3.96893 22.6729 4.17082 25.2592 4.3727C24.6372 6.05874 24.4516 7.873 24.4271 9.66271Z" fill="#333333" stroke="#333333" stroke-width="0.5" stroke-miterlimit="10"/>
<path d="M18.5967 18.2429C18.4139 18.2293 18.1875 18.3384 18.1875 18.4885V21.5414C18.1875 21.6914 18.3048 21.8278 18.5176 21.8442C18.7004 21.8578 18.9268 21.7487 18.9268 21.5986V18.5458C18.9268 18.3985 18.8095 18.2593 18.5967 18.2429Z" fill="#333333" stroke="#333333" stroke-width="0.75" stroke-miterlimit="10"/>
</svg>
