<svg width="43" height="42" viewBox="0 0 43 42" fill="none" xmlns="http://www.w3.org/2000/svg">
<path d="M41.4018 7.03188C40.9642 6.47909 40.3509 6.09904 39.7262 5.79385C39.0121 5.44836 38.2636 5.16908 37.5236 4.88117C36.7232 4.56734 35.92 4.26504 35.108 3.98C31.8748 2.83123 28.5407 1.90126 25.1261 1.48379C22.0569 1.10662 18.9359 1.15557 15.9071 1.81201C13.1143 2.41663 10.4108 3.51646 8.07585 5.1806C6.92132 6.00403 5.82725 6.9743 4.93184 8.07989C4.07098 9.14229 3.28209 10.7287 4.07673 12.0445C4.7994 13.2393 6.34549 13.4754 7.60367 13.7C9.30236 14.0023 11.0126 14.2412 12.7285 14.414C14.2948 14.5723 15.8668 14.6702 17.4388 14.7134C17.4993 14.7422 17.5597 14.771 17.6173 14.7969C19.0828 15.4505 20.6577 15.842 22.2498 16.0321C25.5032 16.4207 28.7999 15.9946 32.0072 15.4217C32.8076 15.2777 33.6023 15.1165 34.4026 14.9697C34.99 14.8631 35.6119 14.794 36.1561 15.01C34.823 15.6779 33.3921 16.1645 31.9525 16.5244C28.9064 17.2845 25.7249 17.5868 22.5896 17.6098C19.2613 17.6357 15.9301 17.3018 12.6738 16.6165C11.0932 16.2825 9.52982 15.8651 7.99236 15.3641C7.8484 15.318 7.72172 15.3785 7.6555 15.5109C6.91556 16.9851 6.67659 18.6866 6.91556 20.3162C7.16892 22.0207 7.95781 23.538 9.13249 24.7875C10.3331 26.0658 11.7496 27.1254 12.6969 28.6254C13.5491 29.9728 14.0414 31.542 14.1739 33.1284C14.2689 34.2311 14.1796 35.3453 13.909 36.4134C13.9205 33.9345 13.169 31.4556 11.7755 29.4028C10.811 27.9805 9.48663 26.9094 8.28027 25.7059C7.67277 25.0984 7.09982 24.4449 6.66795 23.6992C6.25912 22.9909 5.96257 22.2222 5.77254 21.4276C5.33204 19.5763 5.42705 17.6357 5.80709 15.7816C5.83588 15.6434 5.70633 15.5109 5.57676 15.4965C5.42705 15.4793 5.32052 15.5887 5.29173 15.7269C4.95199 17.3853 4.84258 19.1127 5.1161 20.7884C5.38962 22.4698 6.08349 24.0303 7.20635 25.3201C8.33785 26.6186 9.74575 27.6436 10.8254 28.9882C11.836 30.2463 12.5731 31.7262 12.9877 33.2838C13.4195 34.9134 13.5117 36.6179 13.2295 38.2762C13.2237 38.2878 13.218 38.2993 13.2122 38.3108C13.1806 38.3741 13.1777 38.4288 13.1921 38.4778C13.1777 38.5526 13.1633 38.6275 13.1489 38.7024C13.1201 38.8406 13.2497 38.973 13.3792 38.9874C13.5318 39.0047 13.6355 38.8953 13.6642 38.7571C13.6873 38.6505 13.7074 38.5411 13.7276 38.4346C15.1182 35.5699 15.0376 32.0688 13.6239 29.2271C13.2698 28.5131 12.8322 27.8394 12.3139 27.2319C11.7266 26.5409 11.05 25.9334 10.3907 25.3115C9.73999 24.6982 9.1037 24.0562 8.59986 23.3134C8.13919 22.631 7.79945 21.8594 7.59504 21.0648C7.15453 19.3575 7.29273 17.5263 8.02978 15.9226C11.24 16.9447 14.5597 17.6213 17.9139 17.9323C21.3487 18.249 24.818 18.1856 28.2384 17.7394C31.1348 17.3593 34.0629 16.7 36.6685 15.3324C37.1781 15.7844 37.4891 16.4754 37.6446 17.1232C37.8231 17.8661 37.8144 18.6348 37.6906 19.3862C37.1781 22.5562 34.7597 24.9171 33.7491 27.897C32.8796 30.4565 33.3201 33.2867 34.7769 35.5439C35.3153 36.376 35.9977 37.1188 36.7895 37.7177C34.656 37.7004 32.537 37.2282 30.5907 36.3559C30.1818 34.2771 29.6003 32.2358 28.8603 30.2521C28.8056 30.1024 28.5782 30.0477 28.4601 30.1571C26.1597 32.3078 22.6184 32.8404 19.7162 31.7032C18.8928 31.3807 18.1327 30.9201 17.4647 30.3385C17.3179 30.2118 17.0616 30.3327 17.053 30.5199C16.9177 33.3731 16.0654 36.1831 14.5856 38.6246C14.1681 39.3127 13.7017 39.9721 13.195 40.5939C12.9819 40.8531 13.4022 41.1611 13.6124 40.902C15.4637 38.6333 16.7219 35.9067 17.2747 33.0333C17.4014 32.3827 17.4877 31.7262 17.5367 31.0669C20.0329 32.9844 23.5944 33.304 26.4649 32.0688C27.2019 31.7521 27.8958 31.326 28.5091 30.8049C29.1137 32.4748 29.6031 34.1821 29.9688 35.9182C30.0149 36.1342 30.035 36.3703 30.1012 36.5776C30.1732 36.805 30.4554 36.8655 30.6569 36.9518C31.0744 37.1304 31.5005 37.2916 31.9295 37.4327C32.7903 37.7148 33.6771 37.925 34.5754 38.0603C35.5917 38.2129 36.6196 38.259 37.6474 38.2158C37.8663 38.2071 37.9411 37.8616 37.7597 37.7494C35.6004 36.4365 34.181 34.0986 33.87 31.6053C33.7059 30.2895 33.8815 28.9738 34.3537 27.7357C34.9007 26.3048 35.7443 25.0178 36.5073 23.6963C37.2674 22.3805 37.9325 21.013 38.1916 19.5014C38.4334 18.0906 38.2751 16.5186 37.3854 15.3497C37.3077 15.2489 37.2271 15.1539 37.1407 15.0675C38.2751 14.4226 39.3288 13.6337 40.2329 12.6894C41.183 11.6961 42.0324 10.3573 42.0324 8.93499C42.0439 8.244 41.8337 7.57892 41.4018 7.03188ZM17.5597 14.1952C17.4503 14.1347 17.3438 14.0714 17.2401 14.0023C16.9954 13.841 16.7536 13.628 16.6643 13.3372C16.5549 12.9831 16.7133 12.6232 16.909 12.3324C17.3092 11.7393 17.8563 11.221 18.386 10.7431C18.9187 10.2652 19.4859 9.82464 20.0818 9.43308C22.5377 7.81501 25.4888 7.00021 28.4284 7.15281C29.9688 7.23342 31.4919 7.56164 32.9257 8.13459C33.608 8.40523 34.3076 8.71617 34.9123 9.13365C35.4104 9.47915 35.9574 9.99739 35.8595 10.6625C35.776 11.2239 35.2405 11.578 34.7654 11.8026C34.1147 12.1078 33.395 12.2777 32.704 12.4648C31.1032 12.8967 29.4793 13.2451 27.844 13.5099C24.5531 14.0483 21.2133 14.2614 17.8822 14.198C17.7757 14.2009 17.6662 14.198 17.5597 14.1952ZM39.4325 12.7671C38.6119 13.5358 37.6935 14.1779 36.7146 14.7163C36.372 14.4975 35.9804 14.3679 35.5514 14.3449C34.7712 14.3046 33.9909 14.5176 33.2337 14.6616C31.6704 14.961 30.1041 15.2345 28.5235 15.4217C25.4428 15.7844 22.2412 15.8161 19.2555 14.8574C19.126 14.8142 18.9935 14.7739 18.8582 14.7278C20.246 14.7307 21.6366 14.6875 23.0214 14.5925C26.4505 14.3564 29.8623 13.7978 33.1733 12.8736C34.3076 12.5569 36.0639 12.1913 36.3547 10.8179C36.6743 9.3064 34.8403 8.41963 33.7376 7.91866C30.8584 6.60865 27.533 6.26315 24.4552 6.99157C21.5704 7.67393 18.9187 9.24882 16.9407 11.4629C16.4455 12.0157 15.9215 12.7239 16.172 13.5071C16.2555 13.7662 16.4081 13.9821 16.601 14.1635C13.7017 14.0455 10.8081 13.7259 7.94917 13.2307C7.26681 13.1126 6.57006 13.009 5.9165 12.7758C5.35795 12.5771 4.79652 12.269 4.49997 11.7335C3.78882 10.4581 4.82531 8.96666 5.6545 8.03382C7.48563 5.97812 9.8494 4.44354 12.3946 3.42145C14.9771 2.38496 17.7613 1.85232 20.5396 1.76883C23.8103 1.67094 27.0897 2.17766 30.2452 3.00685C31.8604 3.43009 33.4497 3.93681 35.0217 4.49824C35.8077 4.77752 36.5879 5.07407 37.3653 5.37638C38.0735 5.65278 38.7905 5.92054 39.4786 6.24876C40.0717 6.53091 40.6504 6.89081 41.0477 7.42344C41.4393 7.95033 41.5746 8.60389 41.5026 9.24881C41.3471 10.6452 40.4229 11.84 39.4325 12.7671Z" fill="#333333" stroke="#333333" stroke-width="0.5" stroke-miterlimit="10"/>
<path d="M15.2709 23.6704C15.1154 23.0543 14.9196 22.4468 14.6864 21.8565C14.1566 20.5235 13.4253 19.2711 12.527 18.154C12.3169 17.892 11.9138 18.2202 12.124 18.4822C12.8553 19.392 13.4714 20.3911 13.9522 21.4563C14.1883 21.9803 14.3956 22.5187 14.5655 23.0687C14.7123 23.5408 14.8966 24.0677 14.8937 24.5687C14.8937 24.7673 14.8649 24.9977 14.7181 25.1474C14.5655 25.3057 14.3236 25.3259 14.1192 25.277C13.8572 25.2107 13.6355 25.0293 13.4426 24.8508C13.2439 24.6666 13.0597 24.465 12.884 24.2577C12.1931 23.4458 11.6748 22.4957 11.3437 21.4851C10.9694 20.3479 10.8543 19.13 11.0069 17.9467C11.05 17.6156 10.5318 17.5609 10.4886 17.892C10.1892 20.2385 10.909 22.6857 12.4148 24.5082C12.789 24.9602 13.2267 25.4699 13.7737 25.7088C14.3207 25.9449 14.9916 25.8067 15.2737 25.2482C15.5185 24.7616 15.3975 24.1742 15.2709 23.6704Z" fill="#333333" stroke="#333333" stroke-width="0.5" stroke-miterlimit="10"/>
<path d="M34.578 18.9515C34.4196 18.2548 33.9014 17.6242 33.196 17.5206C33.1787 17.2931 32.8044 17.1895 32.6893 17.4515C32.3035 18.3354 31.9868 19.2452 31.7449 20.178C31.624 20.6416 31.4714 21.1339 31.5059 21.6176C31.5347 22.0092 31.7507 22.4151 32.1278 22.5706C32.9657 22.9218 33.5674 21.9084 33.9273 21.3268C34.3534 20.6358 34.7651 19.7893 34.578 18.9515ZM33.6106 20.8517C33.435 21.1512 33.2478 21.4592 33.029 21.7328C32.8764 21.9199 32.6317 22.1848 32.3611 22.107C32.0587 22.0207 32.004 21.6205 32.0271 21.3614C32.0616 20.9669 32.1768 20.5754 32.2804 20.1953C32.4791 19.4554 32.7267 18.7327 33.0175 18.0244C33.5271 18.0187 33.91 18.5024 34.0453 18.9544C34.2382 19.6022 33.9359 20.2961 33.6106 20.8517Z" fill="#333333" stroke="#333333" stroke-width="0.5" stroke-miterlimit="10"/>
<path d="M29.3642 17.8114C28.4918 18.1626 27.8123 18.9112 27.5186 19.7951C25.3766 19.2193 23.0905 19.202 20.9398 19.7663C20.3726 19.916 19.8141 20.1032 19.2728 20.3277C18.7315 19.6857 18.1874 19.0465 17.6461 18.4045C17.4302 18.1482 17.0242 18.4764 17.243 18.7327C17.8275 19.4237 18.4119 20.1147 18.9964 20.8057C19.0713 20.8949 19.1979 20.9266 19.3045 20.8776C21.317 20.0053 23.5541 19.6943 25.7307 19.9678C26.2892 20.0369 26.842 20.1463 27.3862 20.2961C27.3804 20.3623 27.3747 20.4314 27.3689 20.4976C27.3401 20.8316 27.8555 20.8863 27.8872 20.5523C27.9793 19.5504 28.6444 18.6607 29.5801 18.2864C29.8882 18.1597 29.6722 17.6876 29.3642 17.8114Z" fill="#333333" stroke="#333333" stroke-width="0.5" stroke-miterlimit="10"/>
<path d="M29.6232 24.7069C29.3986 24.0015 28.8113 23.4689 28.1836 23.1118C27.435 22.6857 26.5914 22.4525 25.7479 22.3086C24.8064 22.1473 23.8419 22.1301 22.8946 22.2481C22.0107 22.3575 21.0779 22.5619 20.3264 23.06C19.6441 23.5149 19.1518 24.3096 19.2381 25.1503C19.3216 25.9449 19.9982 26.5553 20.7382 26.7655C21.671 27.0275 22.6643 26.7827 23.554 26.4689C23.9945 26.3134 24.4235 26.1234 24.8352 25.8988C25.2095 25.6944 25.6154 25.4785 25.9004 25.1532C26.1509 24.8681 26.2575 24.4593 26.0703 24.1109C25.9062 23.8057 25.5751 23.6358 25.2526 23.5495C24.8668 23.4458 24.4551 23.4199 24.0578 23.4314C23.6231 23.4458 23.1941 23.5639 22.8889 23.8921C22.6269 24.1742 22.4887 24.5831 22.6298 24.9545C22.7449 25.2539 23.0559 25.4382 23.3668 25.4468C23.6749 25.4555 23.9916 25.3057 24.0837 24.9919C24.1787 24.6723 23.695 24.4823 23.6 24.8019C23.577 24.8768 23.5597 24.8969 23.4964 24.9171C23.4042 24.9459 23.3006 24.9286 23.2142 24.8825C23.0069 24.7645 23.0962 24.4679 23.2142 24.3067C23.4244 24.0217 23.7929 23.9526 24.1269 23.9468C24.4465 23.941 24.792 23.9583 25.1029 24.0447C25.3045 24.0994 25.5866 24.2002 25.6413 24.4305C25.7104 24.727 25.3678 24.9631 25.1605 25.1042C24.5012 25.5447 23.7497 25.8816 22.9896 26.1061C22.2497 26.3278 21.4032 26.4977 20.6662 26.1839C20.0644 25.9248 19.6614 25.3662 19.7736 24.6982C19.8946 23.9842 20.4963 23.489 21.124 23.2155C21.8495 22.8988 22.6729 22.7692 23.4561 22.7116C24.2737 22.6512 25.0972 22.7059 25.9004 22.8614C26.5943 22.9938 27.3055 23.1953 27.9187 23.5524C28.4427 23.8575 28.9437 24.2837 29.1366 24.8768C29.3554 25.5505 29.0617 26.2559 28.6155 26.7655C28.1059 27.3471 27.3717 27.6897 26.6778 28.0006C25.9091 28.3432 25.126 28.6657 24.3169 28.9018C22.8054 29.3452 21.1528 29.5093 19.6355 28.9968C18.3255 28.5534 17.1796 27.5659 16.7506 26.2242C16.3705 25.0351 16.7247 23.6474 17.7007 22.847C17.9339 22.6541 18.193 22.5101 18.478 22.4093C18.7919 22.297 18.5788 21.822 18.265 21.9343C16.8341 22.4496 15.9933 24.0044 16.0855 25.4814C16.1834 27.085 17.3293 28.4728 18.7228 29.1782C20.3811 30.0189 22.3534 29.9642 24.1125 29.4978C25.0482 29.2473 25.9552 28.8931 26.839 28.4987C27.6538 28.1359 28.4859 27.7271 29.0704 27.0332C29.6145 26.3912 29.8852 25.5274 29.6232 24.7069Z" fill="#333333" stroke="#333333" stroke-width="0.5" stroke-miterlimit="10"/>
<path d="M15.7284 1.00586C12.9242 1.57305 10.2034 2.54908 7.68413 3.90515C6.43171 4.57887 5.22247 5.34184 4.08233 6.19406C3.00554 6.99734 1.95753 7.93594 1.38746 9.1826C0.817396 10.4293 0.82603 12.0387 1.75311 13.1126C1.97193 13.366 2.37501 13.0406 2.15619 12.7844C1.39034 11.8947 1.37595 10.5991 1.79342 9.54825C2.2656 8.37069 3.25026 7.47815 4.23493 6.7267C6.39716 5.07696 8.82139 3.75831 11.3665 2.79668C12.809 2.24965 14.2946 1.82354 15.809 1.51835C16.1401 1.45501 16.0567 0.939642 15.7284 1.00586Z" fill="#333333" stroke="#333333" stroke-width="0.5" stroke-miterlimit="10"/>
</svg>
