<svg width="41" height="42" viewBox="0 0 41 42" fill="none" xmlns="http://www.w3.org/2000/svg">
<path d="M39.296 22.7952C37.6338 22.783 35.9716 22.7708 34.3093 22.7586C33.803 22.8928 33.2815 22.9751 32.766 23.0239C32.4458 23.0544 32.156 22.9385 31.9273 22.7403C30.1278 22.7281 28.3283 22.7128 26.5288 22.7006L23.8601 22.6823C23.8631 22.6671 23.8632 22.6488 23.8662 22.6305C23.8693 22.6091 23.8753 22.5847 23.8753 22.5603L23.918 21.6392C23.9973 21.5721 24.0553 21.4776 24.0553 21.3708V19.9038C24.0553 19.8397 24.0431 19.7757 24.0248 19.7177C25.6962 19.6689 27.3676 19.6354 29.039 19.6232C30.9025 19.6079 32.763 19.6171 34.6265 19.6445C34.6357 19.6384 34.6479 19.6293 34.657 19.6232C34.7058 19.5805 34.7546 19.5378 34.8034 19.4951C34.8736 19.428 34.9346 19.3578 35.0017 19.2877C35.0047 19.2846 35.0047 19.2846 35.0078 19.2816C35.0108 19.2724 35.0169 19.2663 35.02 19.2602C35.0749 19.1779 35.1237 19.0955 35.1694 19.0101C35.1816 18.9888 35.1938 18.9644 35.203 18.943C35.2182 18.9003 35.2304 18.8546 35.2457 18.8119C35.1694 18.8119 35.0962 18.8088 35.02 18.8088C35.0779 18.7478 35.1145 18.6685 35.1115 18.5801C35.0901 15.7894 35.0718 12.9956 35.0505 10.2048C35.0444 9.4942 35.0413 8.78355 35.0352 8.07291C35.0322 7.49341 35.0444 6.90476 34.9651 6.32832C34.8095 5.20897 34.1965 4.27263 33.0771 3.94323C32.5434 3.78768 31.9944 3.74193 31.4423 3.71753C31.3508 3.71448 31.2594 3.70838 31.1709 3.70533C31.113 3.47354 31.0215 3.25394 30.8842 3.05264C30.5548 2.57684 30.0058 2.36944 29.4568 2.28709C28.8407 2.19559 28.2033 2.18949 27.5811 2.14984C22.0301 1.793 16.4822 1.43615 10.9312 1.0793C10.5225 1.05185 10.1169 1.02745 9.7082 1C9.69295 1 9.67769 1.00305 9.66244 1.00305C9.43369 1.2562 9.19884 1.5002 8.95485 1.7442C8.9213 1.77775 8.89079 1.8052 8.85419 1.8357C8.86029 2.12849 8.86944 2.41824 8.87554 2.71104L7.77756 2.66224C7.77756 2.65919 7.77756 2.65614 7.77756 2.65309C7.76231 2.42434 7.5 2.26879 7.28955 2.30539C7.04555 2.34504 6.92662 2.56464 6.94187 2.79339C6.94492 2.83914 6.94796 2.88489 6.95101 2.93369C6.90526 3.05874 6.91136 3.20209 6.97541 3.31189C7.21331 7.29211 7.28955 11.2815 7.195 15.2678C7.16755 16.4573 7.12486 17.6468 7.06691 18.8363C7.06081 18.9705 7.10656 19.0772 7.18281 19.1535C7.10351 19.5439 7.02422 19.9312 6.94492 20.3216C6.88697 20.6083 7.18586 20.8096 7.43596 20.7852C11.0288 20.4284 14.6309 20.1539 18.2359 19.9587C18.5897 19.9404 18.9405 19.9221 19.2943 19.9038C19.2607 20.7273 19.2302 21.5508 19.1967 22.3743C19.1936 22.4841 19.2211 22.5756 19.2699 22.6488C17.4429 22.6366 15.616 22.6213 13.7891 22.6091L6.56671 22.5573C6.42946 22.5573 6.29526 22.6061 6.20681 22.6976H2.16253C1.93378 22.6976 1.72335 22.8287 1.6959 23.0758C1.67455 23.2862 1.84229 23.5424 2.07409 23.5424H2.09239C2.04969 23.5973 2.01918 23.6705 2.01003 23.762C1.74469 26.7296 1.47934 29.6973 1.21705 32.6649C1.153 33.3725 1.08285 34.0831 1.02795 34.7907C0.9761 35.4648 0.976108 36.1541 1.20791 36.7976C1.5312 37.6943 2.30894 38.2982 3.08058 38.7984C3.89188 39.3261 4.87397 39.8202 5.27352 40.7565C5.48702 41.2567 6.25867 40.909 6.04517 40.4088C5.67917 39.5487 4.92583 38.9784 4.16029 38.4843C3.45879 38.0329 2.63224 37.5998 2.1778 36.8708C1.8728 36.3798 1.82399 35.7881 1.84534 35.2238C1.87279 34.5315 1.95819 33.8361 2.01919 33.1468C2.14729 31.695 2.27845 30.2463 2.40655 28.7945C2.55295 27.1444 2.69933 25.4974 2.84878 23.8474C2.86098 23.7193 2.82133 23.6156 2.75423 23.5394H6.02992L6.05431 36.3859C6.05736 37.615 6.06042 38.8442 6.06042 40.0733C6.06042 40.3631 6.25561 40.5613 6.55146 40.5369C10.5713 40.1953 14.5912 39.8537 18.6111 39.5121C22.631 39.1705 26.6508 38.8289 30.6707 38.4873C32.6715 38.3165 34.6753 38.1488 36.6761 37.978C37.4417 37.9139 38.2713 37.8804 38.9209 37.4229C39.662 36.9013 39.717 36.0107 39.7139 35.1842C39.7078 33.1986 39.6987 31.2131 39.6926 29.2276C39.6895 28.3522 39.7871 27.3945 39.5522 26.5405C39.3266 25.717 38.7684 25.1436 37.9815 24.8295C37.219 24.5245 36.3589 24.4239 35.5507 24.3263C34.657 24.2165 33.7542 24.1616 32.8515 24.1463C31.0428 24.1189 29.2342 24.25 27.4377 24.4483C23.8235 24.8448 20.2276 25.5066 16.5859 25.6194C14.7925 25.6743 12.9869 25.5828 11.2179 25.2565C10.0162 25.0369 8.3845 24.7258 7.37801 25.6347C7.13706 25.8512 6.97237 26.0983 6.86867 26.3545C6.86562 25.3693 6.86561 24.3842 6.86256 23.4021C10.9953 23.4326 15.1311 23.4631 19.2638 23.4906C19.8128 23.4936 20.3648 23.4997 20.9138 23.5028C21.0389 23.6888 21.2981 23.7407 21.5238 23.6004C21.5726 23.5699 21.6214 23.5394 21.6702 23.5089C25.1197 23.5333 28.5662 23.5577 32.0157 23.5821C34.3795 23.6004 36.7432 23.6156 39.1069 23.6339C39.0703 24.0975 39.0338 24.5642 38.9972 25.0308C38.9545 25.5737 39.7962 25.6652 39.839 25.1192C39.8908 24.4666 39.9396 23.8139 39.9914 23.1612C40.0311 22.7494 39.5461 22.6 39.296 22.7952ZM8.18016 29.2794C8.96095 29.7003 9.8912 29.7278 10.7543 29.6576C11.7181 29.5814 12.6728 29.4228 13.6335 29.316C17.5802 28.8829 21.5574 28.7365 25.5254 28.8799C27.4987 28.95 29.4629 29.1056 31.4271 29.3008C33.1503 29.4716 35.0505 29.5112 36.4474 28.3156C37.0177 27.8276 37.4112 27.1932 37.5545 26.4521C37.6094 26.1684 37.3166 25.958 37.0635 25.9885C33.5621 26.4307 30.018 26.5039 26.5014 26.1989C25.501 26.1135 24.5006 25.9946 23.5063 25.8482C22.9665 25.7689 22.878 26.6107 23.4178 26.69C26.968 27.2115 30.5701 27.3518 34.1538 27.117C34.9468 27.0651 35.7398 26.9919 36.5328 26.9035C35.996 28.0015 34.5838 28.4712 33.4309 28.5413C32.522 28.5932 31.6101 28.462 30.7073 28.3766C29.7618 28.2851 28.8163 28.2089 27.8708 28.1479C24.095 27.91 20.3008 27.9313 16.528 28.2058C14.6553 28.3431 12.8009 28.5962 10.9343 28.7945C10.1504 28.8768 9.2507 28.9195 8.54005 28.5169C8.04291 28.2363 7.59455 27.6782 7.58235 27.0865C7.55795 25.7536 9.34829 25.8329 10.2328 25.9488C10.9922 26.0495 11.7395 26.2142 12.4989 26.3057C13.3499 26.4063 14.2069 26.4582 15.064 26.4734C18.544 26.5314 21.9935 25.9915 25.4369 25.5462C28.8316 25.107 32.275 24.7472 35.6879 25.2016C36.4291 25.2992 37.2373 25.3846 37.9144 25.7292C38.6037 26.083 38.7989 26.7449 38.8416 27.4738C38.8934 28.3705 38.8568 29.2794 38.8599 30.1792C38.8629 31.1308 38.866 32.0824 38.8691 33.0339C38.8721 33.9428 38.93 34.8731 38.863 35.7789C38.8386 36.1144 38.7684 36.4591 38.5 36.6878C38.2652 36.8861 37.9541 36.9715 37.6582 37.0264C36.8225 37.1789 35.9502 37.1972 35.1023 37.2704C34.1416 37.3527 33.1839 37.432 32.2231 37.5144C28.3863 37.8407 24.5463 38.1671 20.7095 38.4934L9.19579 39.4725C8.43329 39.5365 7.66776 39.6036 6.90527 39.6677C6.89612 35.6996 6.89001 31.7347 6.88086 27.7666C7.09741 28.3888 7.57931 28.9561 8.18016 29.2794ZM30.4359 4.51968C30.5243 5.79762 30.564 7.08471 30.628 8.3657C30.689 9.60095 30.8019 10.8484 30.8019 12.0867C30.8019 12.5655 30.7744 13.0749 30.5518 13.508C30.3444 13.9136 29.9631 14.1607 29.5331 14.2827C29.0542 14.4169 28.5449 14.4321 28.0538 14.4474C27.4072 14.4687 26.7606 14.487 26.114 14.5084C23.4606 14.5938 20.8071 14.6761 18.1536 14.7615C16.8604 14.8012 15.5672 14.8439 14.274 14.8835C13.7738 14.8988 13.176 14.9933 12.6941 14.8134C12.2427 14.6456 12.1726 14.1332 12.1146 13.7123C11.9377 12.4405 11.7761 11.1656 11.6053 9.89374C11.5199 9.2624 11.4375 8.628 11.3521 7.99666C11.2881 7.51781 11.1508 6.96576 11.2881 6.48997C11.4253 6.01722 11.9011 5.92572 12.3342 5.89522C12.9351 5.85252 13.5451 5.87997 14.1459 5.88607C15.4056 5.90437 16.6652 5.95927 17.9248 6.05077C20.4868 6.23987 23.0397 6.58757 25.5589 7.08776C25.9219 7.16096 26.2848 7.23721 26.6447 7.31346C26.1903 8.07291 26.2604 9.10075 26.233 9.97305C26.2177 10.4763 26.1964 11.0558 25.9097 11.4858C25.501 12.1019 24.6988 12.1843 24.0278 12.291C22.1216 12.596 20.2123 12.901 18.3061 13.206C17.1502 13.3921 15.2409 13.8648 14.8413 12.3093C14.5729 11.2571 14.8291 10.0401 14.3381 9.0855C17.449 8.66765 20.6027 8.7012 23.7045 9.18005V9.9517C23.6801 10.0157 23.6741 10.0828 23.6924 10.153L23.7045 10.2018V10.3634C23.7045 10.4946 23.7473 10.6196 23.8296 10.7081C23.8388 10.7416 23.8449 10.7752 23.854 10.8087C23.9089 11.0222 24.1041 11.2083 24.342 11.1564C24.5524 11.1107 24.7477 10.9002 24.6897 10.6684C24.6409 10.4763 24.5921 10.2841 24.5463 10.092V8.98485C24.5463 8.9635 24.5463 8.9452 24.5433 8.92385C24.5829 8.70425 24.4731 8.44805 24.1895 8.4023C20.6576 7.81366 17.0342 7.80146 13.4963 8.3535C13.115 8.41145 13.0479 8.8842 13.3133 9.11295C13.7403 9.4759 13.8013 10.092 13.8348 10.6166C13.8775 11.2479 13.8501 11.8945 14.0148 12.5106C14.2008 13.1969 14.6065 13.7611 15.2714 14.0539C15.9851 14.365 16.8207 14.2949 17.571 14.1851C19.5261 13.8984 21.475 13.5629 23.427 13.2518C24.2474 13.1206 25.1746 13.0657 25.9036 12.6296C26.5136 12.2636 26.8399 11.6719 26.9772 10.9887C27.1144 10.3146 27.0565 9.6223 27.0931 8.9391C27.1236 8.34741 27.2029 7.75876 27.7122 7.40191C28.0477 7.16706 27.8129 6.72482 27.4896 6.65162C24.8422 6.04467 22.1582 5.60547 19.4559 5.34317C18.1048 5.21203 16.7475 5.12358 15.3933 5.08088C14.7163 5.05953 14.0361 5.04733 13.356 5.04733C12.7795 5.04733 12.1665 5.00463 11.6083 5.16627C11.0654 5.32487 10.6293 5.70002 10.4768 6.25512C10.3243 6.81021 10.4127 7.38666 10.489 7.94786C10.6689 9.3112 10.8519 10.6715 11.0319 12.0348C11.1203 12.6906 11.1935 13.3524 11.2972 14.0051C11.3826 14.5419 11.5656 15.1001 12.0292 15.4234C12.502 15.7528 13.0845 15.765 13.6396 15.7497C14.3289 15.7284 15.0152 15.707 15.7045 15.6857C18.4891 15.5972 21.2768 15.5088 24.0614 15.4203C25.4552 15.3776 26.846 15.3349 28.2399 15.2892C29.2921 15.2556 30.4938 15.1184 31.1404 14.1698C31.7992 13.2091 31.6437 11.9616 31.5918 10.8636L31.3844 6.69432C31.3508 5.99892 31.3173 5.30352 31.2807 4.61118C31.2807 4.59593 31.2777 4.58373 31.2777 4.56848C31.4027 4.57458 31.5308 4.58373 31.6558 4.58983C32.1499 4.62033 32.6562 4.66913 33.1137 4.87348C33.5682 5.07783 33.864 5.46212 34.0104 5.93182C34.1507 6.38627 34.1751 6.88036 34.1812 7.35006C34.1904 8.02716 34.1904 8.70425 34.1965 9.38135L34.2453 16.2255C27.8525 16.6403 21.4567 17.052 15.064 17.4668C13.4017 17.5736 11.7425 17.6834 10.0803 17.7901C9.97354 13.5568 9.86985 9.32645 9.7631 5.09308C9.7509 4.59898 9.7387 4.10183 9.7265 3.60773L23.5886 4.22688C25.867 4.32753 28.1514 4.40073 30.4298 4.51968C30.4359 4.51663 30.4359 4.51663 30.4359 4.51968ZM24.5555 2.80864C25.8487 2.89099 27.1388 2.97334 28.432 3.05874C28.9139 3.08924 29.4995 3.05874 29.9357 3.31189C30.0882 3.40034 30.1919 3.52538 30.262 3.67178C29.9601 3.65958 29.6551 3.64433 29.3531 3.63213C27.9593 3.57114 26.5685 3.50709 25.1746 3.44609C22.39 3.32104 19.6054 3.19599 16.8177 3.07399C14.4479 2.96724 12.078 2.86354 9.71124 2.75679C9.70514 2.45789 9.696 2.15594 9.6899 1.85705C14.6461 2.17424 19.6023 2.49144 24.5555 2.80864ZM21.8014 22.4414C21.7678 22.4627 21.7373 22.481 21.7038 22.5024C21.7068 22.4048 21.7068 22.3041 21.7099 22.2065C21.7099 22.1943 21.7099 22.1821 21.7099 22.173C21.78 22.1913 21.8563 22.1943 21.9295 22.1791C21.9325 22.2126 21.9356 22.2462 21.9386 22.2767C21.8837 22.3224 21.8349 22.3773 21.8014 22.4414ZM21.7556 18.9552C18.9832 19.062 16.2138 19.2145 13.4475 19.4188C11.59 19.5561 9.73869 19.7147 7.8843 19.8916L8.11305 18.7753C8.14355 18.6197 8.0551 18.4703 7.927 18.3818C8.1039 14.3315 8.11306 10.275 7.95446 6.22157C7.91786 5.31877 7.87515 4.41598 7.8233 3.51319C8.18014 3.52844 8.53699 3.54368 8.89079 3.56198C8.98229 7.17926 9.07074 10.7996 9.16224 14.4169C9.19274 15.6735 9.22629 16.9301 9.25679 18.1866C9.26289 18.4794 9.4459 18.6685 9.74785 18.6502L29.0146 17.4028L34.2605 17.0642L34.2697 18.4947C34.2697 18.6075 34.3032 18.7173 34.3642 18.7997C31.0184 18.7539 27.6726 18.7753 24.3298 18.8698C23.5765 18.8912 22.8231 18.9156 22.0667 18.943C21.9661 18.9247 21.8593 18.9308 21.7556 18.9552ZM22.7621 19.7757C22.7591 19.794 22.756 19.8092 22.756 19.8275C22.7011 19.8123 22.6432 19.8092 22.5852 19.8153C22.5822 19.797 22.5791 19.7818 22.5761 19.7665C22.6401 19.7635 22.7042 19.7635 22.7652 19.7604C22.7621 19.7665 22.7621 19.7726 22.7621 19.7757Z" fill="#333333" stroke="#333333" stroke-width="0.5" stroke-miterlimit="10"/>
<path d="M37.5392 31.997C33.9158 32.0427 30.2925 32.1464 26.6721 32.3081C25.8639 32.3447 25.0587 32.3843 24.2505 32.427C24.2779 31.4053 24.3023 30.3835 24.3298 29.3618C24.345 28.8219 23.5002 28.7274 23.488 29.2733C23.4605 30.3408 23.4331 31.4053 23.4056 32.4728C20.8802 32.61 18.3579 32.7778 15.8356 32.973C13.7921 33.1316 11.7516 33.3115 9.71119 33.5067C9.16829 33.5585 9.30859 34.3942 9.84844 34.3424C13.4352 33.9977 17.0281 33.708 20.621 33.4793C21.5421 33.4213 22.4601 33.3664 23.3812 33.3145C23.3446 34.7389 23.308 36.1663 23.2684 37.5906C23.2531 38.1305 24.098 38.225 24.1102 37.6791C24.1498 36.209 24.1864 34.7389 24.2261 33.2688C26.605 33.1438 28.9871 33.0431 31.3661 32.9699C33.3943 32.9059 35.4195 32.8632 37.4477 32.8388C37.6765 32.8357 37.8869 32.7076 37.9144 32.4606C37.9388 32.2562 37.771 31.9939 37.5392 31.997Z" fill="#333333" stroke="#333333" stroke-width="0.5" stroke-miterlimit="10"/>
<path d="M22.5395 30.6916C21.7099 30.6916 20.8834 30.6916 20.0538 30.6916C19.8921 30.5269 19.6085 30.475 19.4194 30.6916C19.3889 30.6916 19.3584 30.6916 19.3279 30.6916C19.1174 30.6916 18.9253 30.7953 18.8765 31.0118C18.8338 31.2009 18.9253 31.448 19.1296 31.5059C19.1662 31.5151 19.2028 31.5242 19.2394 31.5303C19.2394 31.5303 19.2394 31.5303 19.2394 31.5334C19.2425 31.5334 19.2455 31.5334 19.2486 31.5334C19.3614 31.5517 19.4712 31.5517 19.5749 31.5334C20.5326 31.5334 21.4934 31.5334 22.4511 31.5334C22.6798 31.5334 22.8903 31.4022 22.9177 31.1552C22.936 30.9478 22.7682 30.6916 22.5395 30.6916Z" fill="#333333" stroke="#333333" stroke-width="0.5" stroke-miterlimit="10"/>
<path d="M29.109 30.2066C27.9134 30.3164 26.7178 30.4232 25.5222 30.533C24.9793 30.5818 25.1196 31.4175 25.6595 31.3687C26.8551 31.2589 28.0507 31.1521 29.2463 31.0423C29.7922 30.9935 29.6519 30.1578 29.109 30.2066Z" fill="#333333" stroke="#333333" stroke-width="0.5" stroke-miterlimit="10"/>
</svg>
