<svg width="116" height="64" viewBox="0 0 116 64" fill="none" xmlns="http://www.w3.org/2000/svg">
<g clip-path="url(#clip0)">
<path fill-rule="evenodd" clip-rule="evenodd" d="M0 63.8542V48.6138H4.09806C4.9324 48.6138 5.54588 48.7596 5.98759 49.027C6.40476 49.2944 6.74831 49.7805 7.01824 50.4854C7.26363 51.166 7.41087 51.9438 7.41087 52.7702C7.41087 53.8397 7.19002 54.7634 6.77285 55.4926C6.35568 56.2218 5.69312 56.708 4.8097 56.9024C5.12871 57.1698 5.37411 57.4129 5.54588 57.6559C5.91397 58.1907 6.23298 58.8713 6.55199 59.6734L8.14705 63.8299H6.62561L5.39865 60.67C5.0551 59.7463 4.73608 59.0414 4.51523 58.5796C4.29438 58.0935 4.07352 57.7532 3.90175 57.5587C3.72997 57.3642 3.53366 57.2427 3.33735 57.1455C3.19011 57.0969 2.96926 57.0726 2.65024 57.0726H1.22696V63.8299H0V63.8542ZM1.22696 55.3468H3.85267C4.41707 55.3468 4.85878 55.2495 5.15325 55.0551C5.47226 54.8606 5.71766 54.569 5.86489 54.1314C6.03667 53.7182 6.11029 53.2564 6.11029 52.7702C6.11029 52.041 5.96305 51.4577 5.64404 50.9958C5.32503 50.534 4.83424 50.2909 4.14714 50.2909H1.22696V55.3468Z" fill="#134094"/>
<path fill-rule="evenodd" clip-rule="evenodd" d="M8.39258 56.1975C8.39258 53.6696 8.80975 51.7007 9.61954 50.2666C10.4539 48.8325 11.5091 48.1276 12.8097 48.1276C13.6685 48.1276 14.4292 48.4679 15.1163 49.1242C15.8034 49.8048 16.3188 50.7285 16.6869 51.9438C17.0549 53.1348 17.2267 54.496 17.2267 56.0274C17.2267 57.5587 17.0304 58.9442 16.6623 60.1595C16.2942 61.3749 15.7544 62.2985 15.0427 62.9305C14.3556 63.5625 13.5949 63.8785 12.7851 63.8785C11.9017 63.8785 11.141 63.5382 10.4539 62.8333C9.76678 62.1527 9.25145 61.2047 8.88336 59.9894C8.56435 58.7983 8.39258 57.5344 8.39258 56.1975ZM9.64408 56.2218C9.64408 58.0448 9.93855 59.5032 10.552 60.5484C11.141 61.5936 11.9017 62.1284 12.8097 62.1284C13.7421 62.1284 14.4783 61.5936 15.0918 60.5241C15.6807 59.4546 15.9752 57.9476 15.9752 56.0031C15.9752 54.7634 15.8525 53.6939 15.5826 52.7702C15.3372 51.8466 14.9446 51.1417 14.4783 50.6312C13.9875 50.1208 13.4477 49.8777 12.8342 49.8777C11.9753 49.8777 11.2146 50.3639 10.6011 51.3361C9.96309 52.3084 9.64408 53.937 9.64408 56.2218Z" fill="#134094"/>
<path fill-rule="evenodd" clip-rule="evenodd" d="M17.8647 58.6768L19.0181 58.5067C19.0672 59.2845 19.1899 59.8922 19.4107 60.4026C19.607 60.8887 19.926 61.2776 20.3432 61.5936C20.7604 61.8853 21.2266 62.0555 21.7665 62.0555C22.2327 62.0555 22.6499 61.9339 22.9935 61.7152C23.3615 61.4964 23.6069 61.1804 23.7787 60.7672C23.9505 60.3783 24.0487 59.9408 24.0487 59.4546C24.0487 58.9685 23.975 58.5553 23.8033 58.215C23.6315 57.8504 23.3616 57.5587 22.9689 57.3156C22.7235 57.1698 22.1837 56.9024 21.3248 56.5864C20.4659 56.2461 19.877 55.9301 19.5334 55.6384C19.0917 55.2495 18.7727 54.7877 18.5518 54.2287C18.331 53.6696 18.2328 53.0376 18.2328 52.3327C18.2328 51.5549 18.3555 50.85 18.6255 50.1694C18.8954 49.4888 19.288 49.0027 19.7788 48.6381C20.2941 48.2978 20.8585 48.1276 21.472 48.1276C22.1591 48.1276 22.7726 48.2978 23.2879 48.6624C23.8033 49.027 24.2204 49.5617 24.4904 50.2666C24.7603 50.9715 24.9321 51.7737 24.9566 52.673L23.7787 52.8188C23.7051 51.8466 23.5088 51.1417 23.1407 50.6312C22.7726 50.1451 22.2327 49.902 21.5211 49.902C20.7849 49.902 20.2451 50.1208 19.9015 50.5826C19.558 51.0201 19.3862 51.5792 19.3862 52.2112C19.3862 52.7459 19.5089 53.2078 19.7543 53.5724C19.9997 53.9127 20.6131 54.2773 21.5947 54.6662C22.6008 55.0308 23.2634 55.3711 23.6315 55.6384C24.1713 56.0517 24.564 56.5621 24.8339 57.1941C25.0793 57.8261 25.2265 58.531 25.2265 59.3574C25.2265 60.1595 25.0793 60.9374 24.8094 61.6422C24.5394 62.3471 24.1223 62.9062 23.6069 63.3194C23.0671 63.7083 22.4781 63.9028 21.8156 63.9028C20.9812 63.9028 20.2696 63.7083 19.7052 63.2951C19.1408 62.9062 18.6991 62.2985 18.3801 61.4721C18.0611 60.5971 17.8893 59.6734 17.8647 58.6768Z" fill="#134094"/>
<path fill-rule="evenodd" clip-rule="evenodd" d="M28.7108 63.8542V50.4125H25.668V48.6138H32.9807V50.4125H29.9378V63.8542H28.7108Z" fill="#134094"/>
<path fill-rule="evenodd" clip-rule="evenodd" d="M33.1035 56.1975C33.1035 53.6696 33.5207 51.7007 34.3305 50.2666C35.1648 48.8325 36.22 48.1276 37.5206 48.1276C38.3795 48.1276 39.1402 48.4679 39.8273 49.1242C40.5144 49.8048 41.0297 50.7285 41.3978 51.9438C41.7659 53.1348 41.9377 54.496 41.9377 56.0274C41.9377 57.5587 41.7413 58.9442 41.3733 60.1595C41.0052 61.3749 40.4653 62.2985 39.7537 62.9305C39.0666 63.5625 38.3058 63.8785 37.496 63.8785C36.6126 63.8785 35.8519 63.5382 35.1648 62.8333C34.4777 62.1527 33.9624 61.2047 33.5943 59.9894C33.2753 58.7983 33.1035 57.5344 33.1035 56.1975ZM34.3796 56.2218C34.3796 58.0448 34.674 59.5032 35.2875 60.5484C35.8765 61.5936 36.6372 62.1284 37.5451 62.1284C38.4776 62.1284 39.2138 61.5936 39.8273 60.5241C40.4162 59.4546 40.7107 57.9476 40.7107 56.0031C40.7107 54.7634 40.588 53.6939 40.3181 52.7702C40.0727 51.8466 39.68 51.1417 39.2138 50.6312C38.723 50.1208 38.1832 49.8777 37.5697 49.8777C36.7108 49.8777 35.9501 50.3639 35.3366 51.3361C34.674 52.3084 34.3796 53.937 34.3796 56.2218Z" fill="#134094"/>
<path fill-rule="evenodd" clip-rule="evenodd" d="M42.9438 63.8542V48.6138H44.1708V56.1732L48.7597 48.6138H50.4283L46.5511 54.7877L50.6001 63.8542H48.9805L45.6922 56.1732L44.1708 58.5796V63.8542H42.9438Z" fill="#134094"/>
<path fill-rule="evenodd" clip-rule="evenodd" d="M65.1025 63.8542V48.6138H67.2865L69.8877 59.406C70.1331 60.4026 70.3049 61.1561 70.403 61.6666C70.5257 61.1075 70.722 60.3054 70.992 59.2359L73.6422 48.6381H75.6054V63.8785H74.2066V51.1417L70.992 63.8785H69.6668L66.4767 50.8986V63.8785H65.1025V63.8542Z" fill="#134094"/>
<path fill-rule="evenodd" clip-rule="evenodd" d="M77.9858 63.8542V48.6138H85.9366V50.4125H79.4337V55.0794H85.5194V56.8781H79.4337V62.0555H86.2065V63.8542H77.9858Z" fill="#134094"/>
<path fill-rule="evenodd" clip-rule="evenodd" d="M88.145 63.8542V48.6138H92.2676C93.102 48.6138 93.7891 48.7596 94.3044 49.0756C94.8197 49.3916 95.2123 49.8534 95.5068 50.5097C95.8013 51.1417 95.9485 51.8223 95.9485 52.5272C95.9485 53.1835 95.8258 53.7911 95.5559 54.3745C95.3105 54.9579 94.9179 55.4197 94.4025 55.76C95.0651 56.0274 95.5804 56.4892 95.9485 57.1455C96.3166 57.8018 96.4884 58.5553 96.4884 59.4546C96.4884 60.1595 96.3902 60.8401 96.1694 61.4478C95.9485 62.0555 95.6786 62.5416 95.3596 62.8576C95.0406 63.1979 94.6479 63.441 94.1572 63.6111C93.6664 63.7813 93.0774 63.8542 92.3658 63.8542H88.145ZM89.6174 55.0308H91.9977C92.6357 55.0308 93.102 54.9822 93.3964 54.8606C93.7645 54.7148 94.059 54.4474 94.2308 54.1071C94.4271 53.7425 94.5252 53.305 94.5252 52.7702C94.5252 52.2598 94.4271 51.8223 94.2553 51.4334C94.0835 51.0445 93.8381 50.7771 93.4946 50.6312C93.1756 50.4854 92.6112 50.4125 91.8259 50.4125H89.6174V55.0308ZM89.6174 62.0555H92.3658C92.832 62.0555 93.1756 62.0312 93.3719 61.9826C93.7154 61.9096 93.9854 61.7638 94.2062 61.5693C94.4271 61.3749 94.6234 61.0832 94.7706 60.7186C94.9179 60.354 94.9915 59.9165 94.9915 59.4303C94.9915 58.8713 94.8933 58.3608 94.6725 57.9476C94.4516 57.5344 94.1817 57.2427 93.7891 57.0726C93.421 56.9024 92.8811 56.8295 92.1695 56.8295H89.6174V62.0555Z" fill="#134094"/>
<path fill-rule="evenodd" clip-rule="evenodd" d="M98.501 63.8542V48.6138H106.452V50.4125H99.9733V55.0794H106.059V56.8781H99.9733V62.0555H106.722V63.8542H98.501Z" fill="#134094"/>
<path fill-rule="evenodd" clip-rule="evenodd" d="M108.685 63.8542V48.6138H110.132V62.0555H115.556V63.8542H108.685Z" fill="#134094"/>
<path d="M55.8271 37.9187C55.3118 35.3665 53.7658 33.0573 52.1462 31.2343C48.1218 26.5188 40.9563 24.3798 40.9563 24.3798C40.9563 24.3798 35.5331 22.4839 28.6621 22.4839C29.1038 27.3452 29.9627 30.3836 29.9627 30.3836C29.9627 30.3836 31.0179 34.9047 33.6927 37.7729C36.3674 40.6411 38.5514 41.3946 40.0729 42.1967C41.5943 42.9989 44.809 44.044 45.5451 44.3357C47.5328 45.1135 49.7659 45.4782 49.7659 45.4782C49.7659 45.4782 51.2137 45.7455 52.1462 46.1101C53.0787 46.4747 53.7413 47.0581 54.2811 48.1276C54.7474 49.0999 54.7474 50.8986 54.7474 50.8986L54.8701 63.9514H56.5388L56.4651 45.3566C56.4406 45.4052 56.3424 40.4709 55.8271 37.9187Z" fill="#134094"/>
<path d="M74.9676 24.3798C74.9676 24.3798 67.8021 26.5188 63.7777 31.2343C62.1581 33.0573 60.6121 35.3665 60.0968 37.9187C59.5814 40.4709 59.4833 45.4052 59.4833 45.4052L59.4097 64H61.0783L61.201 50.9472C61.201 50.9472 61.1765 49.1485 61.6673 48.1762C62.1826 47.1067 62.8697 46.5234 63.8022 46.1587C64.7347 45.7941 66.1825 45.5268 66.1825 45.5268C66.1825 45.5268 68.4401 45.1622 70.4033 44.3843C71.1394 44.0927 74.3295 43.0475 75.8755 42.2453C77.4215 41.4432 79.6055 40.6654 82.2557 37.8215C84.906 34.9776 85.9857 30.4322 85.9857 30.4322C85.9857 30.4322 86.8691 27.3938 87.2863 22.5325C80.3908 22.5082 74.9676 24.3798 74.9676 24.3798Z" fill="#134094"/>
<path d="M57.6187 0C57.6187 0 45.349 6.36839 45.8889 16.9176C47.0422 28.0258 57.6187 33.8352 57.6187 33.8352C57.6187 33.8352 68.1951 28.0258 69.3485 16.9176C69.8883 6.36839 57.6187 0 57.6187 0ZM57.6187 30.2621C57.6187 30.2621 50.9685 24.0638 50.944 16.237C50.944 6.68439 57.6187 3.40296 57.6187 3.40296C57.6187 3.40296 64.2934 6.68439 64.2934 16.237C64.2688 24.0881 57.6187 30.2621 57.6187 30.2621Z" fill="#134094"/>
</g>
<defs>
<clipPath id="clip0">
<rect width="115.556" height="64" fill="white"/>
</clipPath>
</defs>
</svg>
