<svg width="16" height="16" viewBox="0 0 16 16" fill="none" xmlns="http://www.w3.org/2000/svg">
<path d="M8.00016 9.33333C9.47083 9.33333 10.6668 8.13733 10.6668 6.66667C10.6668 5.196 9.47083 4 8.00016 4C6.5295 4 5.3335 5.196 5.3335 6.66667C5.3335 8.13733 6.5295 9.33333 8.00016 9.33333ZM8.00016 5.33333C8.7355 5.33333 9.3335 5.93133 9.3335 6.66667C9.3335 7.402 8.7355 8 8.00016 8C7.26483 8 6.66683 7.402 6.66683 6.66667C6.66683 5.93133 7.26483 5.33333 8.00016 5.33333Z" fill="#777777"/>
<path d="M7.61323 14.5427C7.72606 14.6233 7.86125 14.6666 7.9999 14.6666C8.13855 14.6666 8.27373 14.6233 8.38656 14.5427C8.58923 14.3993 13.3526 10.96 13.3332 6.66668C13.3332 3.72601 10.9406 1.33334 7.9999 1.33334C5.05923 1.33334 2.66656 3.72601 2.66656 6.66334C2.64723 10.96 7.41056 14.3993 7.61323 14.5427ZM7.9999 2.66668C10.2059 2.66668 11.9999 4.46068 11.9999 6.67001C12.0139 9.62868 9.07456 12.2853 7.9999 13.1567C6.9259 12.2847 3.9859 9.62734 3.9999 6.66668C3.9999 4.46068 5.7939 2.66668 7.9999 2.66668Z" fill="#777777"/>
</svg>
