<svg width="16" height="16" viewBox="0 0 16 16" fill="none" xmlns="http://www.w3.org/2000/svg">
<path d="M14.0428 2.80152L14.0214 2.78814L11.3154 1.45499L8.39467 5.34927L9.73842 7.14105C9.69821 7.81677 9.41165 8.45431 8.933 8.93296C8.45434 9.41161 7.8168 9.69816 7.14108 9.73836L5.34933 8.39461L1.45508 11.3153L2.77714 13.9987L2.78827 14.0213L2.80167 14.0427C2.87222 14.1564 2.9707 14.2501 3.08772 14.315C3.20474 14.3798 3.33641 14.4137 3.4702 14.4132H4.16845C5.51383 14.4132 6.84604 14.1482 8.089 13.6334C9.33197 13.1185 10.4614 12.3639 11.4127 11.4126C12.364 10.4612 13.1186 9.33185 13.6335 8.08888C14.1483 6.84591 14.4133 5.51371 14.4133 4.16833V3.47005C14.4138 3.33626 14.3799 3.20459 14.3151 3.08757C14.2502 2.97055 14.1565 2.87207 14.0428 2.80152ZM13.4133 4.16833C13.4133 9.26599 9.26608 13.4132 4.16845 13.4132H3.60345L2.71889 11.6175L5.34952 9.64455L6.81411 10.743H6.98077C7.9783 10.7418 8.93466 10.3451 9.64002 9.63971C10.3454 8.93435 10.7421 7.97799 10.7433 6.98045V6.8138L9.64486 5.34924L11.6176 2.71877L13.4133 3.60349V4.16833Z" fill="#333333"/>
</svg>
