<svg width="140" height="24" viewBox="0 0 140 24" fill="none" xmlns="http://www.w3.org/2000/svg">
<path d="M4.58843 11.083C7.09176 11.083 8.3494 12.856 8.3494 14.9096C8.3494 16.9938 7.07085 18.6782 4.5496 18.6782H2.77517V21.8945H0V11.083H4.58843ZM2.75724 16.5788H3.69524C4.82742 16.5788 5.54137 16.0814 5.54137 14.9066C5.54137 13.8141 4.90508 13.2282 3.89838 13.2282H2.75724V16.5788Z" fill="#0F4496"/>
<path d="M9.37109 15.9227C9.37109 12.8498 11.1157 10.8938 14.1866 10.8938C17.2575 10.8938 18.9871 12.8651 18.9871 15.9227V17.1097C18.9871 20.1521 17.2515 22.0837 14.1806 22.0837C11.1097 22.0837 9.37408 20.1521 9.37408 17.1097V15.9227H9.37109ZM12.209 17.125C12.209 18.8979 12.9917 19.8011 14.1776 19.8011C15.3635 19.8011 16.1462 18.8979 16.1462 17.125V15.88C16.1462 14.1071 15.3635 13.1794 14.1776 13.1794C12.9917 13.1794 12.209 14.1071 12.209 15.88V17.125Z" fill="#0F4496"/>
<path d="M23.0977 17.0548C23.0977 18.8064 23.7728 19.7554 24.9587 19.7554C26.0521 19.7554 26.6794 18.9406 26.6884 17.8299H29.3321V18.2022C29.3321 20.5305 27.4949 22.0837 24.9348 22.0837C21.9267 22.0837 20.2598 20.1277 20.2598 17.0395V15.9532C20.2598 12.8559 21.9267 10.8938 24.9348 10.8938C27.4949 10.8938 29.3321 12.4623 29.3321 14.8394V15.1964H26.6884C26.6794 14.0643 26.0521 13.2252 24.9587 13.2252C23.7728 13.2252 23.0977 14.1833 23.0977 15.9502V17.0548Z" fill="#0F4496"/>
<path d="M32.8986 21.8945V13.3869H30.0757V11.083H38.4968V13.3869H35.6738V21.8945H32.8986Z" fill="#0F4496"/>
<path d="M39.1812 15.9227C39.1812 12.8498 40.9257 10.8938 43.9966 10.8938C47.0675 10.8938 48.7942 12.8651 48.7942 15.9227V17.1097C48.7942 20.1521 47.0586 22.0837 43.9877 22.0837C40.9168 22.0837 39.1812 20.1521 39.1812 17.1097V15.9227ZM42.0191 17.125C42.0191 18.8979 42.8017 19.8011 43.9877 19.8011C45.1736 19.8011 45.9563 18.8979 45.9563 17.125V15.88C45.9563 14.1071 45.1736 13.1794 43.9877 13.1794C42.8017 13.1794 42.0191 14.1071 42.0191 15.88V17.125Z" fill="#0F4496"/>
<path d="M53.3943 17.4576H53.2778V21.8945H50.4937V11.083H53.2778V15.4162H53.3943L56.7818 11.083H59.9215L55.8677 16.2004L59.8766 21.8945H56.5966L53.3943 17.4576Z" fill="#0F4496"/>
<path d="M79.4341 21.8945V11.083H82.3198L84.8948 16.7924H84.9874L87.5624 11.083H90.4242V21.8945H87.9269V15.407H87.8014L85.7014 20.1277H84.142L82.024 15.407H81.8986V21.8945H79.4341Z" fill="#0F4496"/>
<path d="M99.7955 21.8945H92.5454V11.083H99.7955V13.3076H95.2997V15.4467H99.5087V17.4912H95.2997V19.6699H99.7955V21.8945Z" fill="#0F4496"/>
<path d="M104.426 15.0042H106.185C108.697 15.0042 109.985 16.5177 109.985 18.3853C109.985 20.2772 108.727 21.8945 106.218 21.8945H101.65V11.083H108.93V13.3411H104.426V15.0042ZM105.65 19.7462C106.579 19.7462 107.171 19.2641 107.171 18.3914C107.171 17.5278 106.582 17.0365 105.65 17.0365H104.411V19.7462H105.65Z" fill="#0F4496"/>
<path d="M118.771 21.8945H111.521V11.083H118.771V13.3076H114.275V15.4467H118.484V17.4912H114.275V19.6699H118.771V21.8945Z" fill="#0F4496"/>
<path d="M121.525 11.083H129.241V21.8945H126.463V13.3656H124.013L123.951 15.8678C123.843 20.4389 123.075 22.0532 120.802 22.0532C120.345 22.0532 120.004 21.9738 119.849 21.8945V19.5021C119.936 19.5326 120.097 19.5723 120.243 19.5723C121.181 19.5723 121.423 18.4707 121.468 15.407L121.525 11.083Z" fill="#0F4496"/>
<path d="M131.365 21.8945V11.083H134.14V14.3847H135.914C138.433 14.3847 139.714 16.0478 139.714 18.1076C139.714 20.1429 138.457 21.8945 135.953 21.8945H131.365ZM136.909 18.1167C136.909 17.0701 136.273 16.4842 135.266 16.4842H134.104V19.7462H135.266C136.273 19.7462 136.909 19.1695 136.909 18.1167Z" fill="#0F4496"/>
<path d="M68.3992 21.391C68.3992 21.391 65.8212 3.99441 85.8896 0L68.3992 21.391Z" fill="#F18611"/>
<path d="M58.7476 15.7793C58.7476 15.7793 66.3173 14.873 67.7482 24L58.7476 15.7793Z" fill="#F18611"/>
</svg>
