<svg width="149" height="132" viewBox="0 0 149 132" fill="none" xmlns="http://www.w3.org/2000/svg">
<g clip-path="url(#clip0)">
<path d="M52.9075 80.8971C51.9038 75.8963 48.8928 71.3718 45.7385 67.7999C37.9003 58.5604 23.9446 54.3693 23.9446 54.3693C23.9446 54.3693 13.3822 50.6544 0 50.6544C0.860285 60.1797 2.53306 66.133 2.53306 66.133C2.53306 66.133 4.58818 74.9914 9.79769 80.6113C15.0072 86.2312 19.2608 87.7077 22.224 89.2793C25.1872 90.851 31.4482 92.8989 32.882 93.4704C36.7533 94.9945 41.1025 95.7089 41.1025 95.7089C41.1025 95.7089 43.9223 96.2328 45.7385 96.9472C47.5546 97.6616 48.845 98.8046 49.8965 100.9C50.8046 102.805 50.8046 106.33 50.8046 106.33L51.0436 131.905H54.2935L54.1501 95.4707C54.1024 95.566 53.9112 85.8979 52.9075 80.8971Z" fill="#BAED00"/>
<path d="M109.035 5.88114C109.035 5.88114 86.3027 12.69 73.5349 27.7005C68.3967 33.5035 63.492 40.854 61.8571 48.9782C60.2222 57.1024 59.9108 72.8092 59.9108 72.8092L59.6772 132H64.9712L65.3604 90.4504C65.3604 90.4504 65.2826 84.7248 66.8396 81.6299C68.4745 78.2254 70.6544 76.3684 73.6128 75.2078C76.5712 74.0472 81.1644 73.1961 81.1644 73.1961C81.1644 73.1961 88.3268 72.0355 94.555 69.5596C96.8906 68.6311 107.011 65.304 111.916 62.7507C116.821 60.1974 123.75 57.7214 132.158 48.6687C140.566 39.616 143.991 25.1471 143.991 25.1471C143.991 25.1471 146.794 15.4755 148.117 0.000747165C126.241 -0.0766264 109.035 5.88114 109.035 5.88114Z" fill="#777777"/>
</g>
<defs>
<clipPath id="clip0">
<rect width="148.117" height="132" fill="white"/>
</clipPath>
</defs>
</svg>
