<svg width="16" height="16" viewBox="0 0 16 16" fill="none" xmlns="http://www.w3.org/2000/svg">
<path d="M8.00016 1.33334C4.3335 1.33334 1.3335 4.33334 1.3335 8.00001C1.3335 11.6667 4.3335 14.6667 8.00016 14.6667C11.6668 14.6667 14.6668 11.6667 14.6668 8.00001C14.6668 4.33334 11.6668 1.33334 8.00016 1.33334ZM8.00016 13.3333C5.06016 13.3333 2.66683 10.94 2.66683 8.00001C2.66683 5.06001 5.06016 2.66668 8.00016 2.66668C10.9402 2.66668 13.3335 5.06001 13.3335 8.00001C13.3335 10.94 10.9402 13.3333 8.00016 13.3333ZM8.3335 4.66668H7.3335V8.66668L10.8002 10.8L11.3335 9.93334L8.3335 8.13334V4.66668Z" fill="#333333"/>
</svg>
