<svg width="35" height="42" viewBox="0 0 35 42" fill="none" xmlns="http://www.w3.org/2000/svg">
<path d="M11.1428 14.4276C10.9156 14.324 10.7151 14.1001 10.5409 13.9072C10.3764 13.725 10.2095 13.52 10.0521 13.3275C9.75353 12.9623 9.51541 12.5293 9.25483 12.1264C9.00979 11.7475 8.88413 11.3549 8.81516 10.9026C8.72252 10.2952 8.93257 9.60996 9.0343 9.00379" stroke="#333333" stroke-linecap="round" stroke-linejoin="round"/>
<path d="M7.66117 10C7.09006 10 6.71291 9.9263 6.22412 9.67127C5.62096 9.35656 5.08896 8.93855 4.67179 8.43618C4.20584 7.87507 4.18652 7.26016 4.18652 6.59764C4.18652 6.21345 4.18104 5.8289 4.18652 5.44474C4.19259 5.01934 4.3801 4.65218 4.51361 4.25192C4.63913 3.87561 4.72404 3.51968 4.90772 3.15772C5.07258 2.83285 5.44141 2.58907 5.77907 2.40164C6.57661 1.95894 7.66658 1.98464 8.57809 2.0142C9.54691 2.04563 11.1841 2.33541 11.1841 3.44888" stroke="#333333" stroke-linecap="round" stroke-linejoin="round"/>
<path d="M11.2138 4C11.2138 3.56067 11.0564 3.13146 11.4661 2.80232C11.7421 2.58055 12.0286 2.39899 12.3755 2.27855C12.7246 2.15737 13.0356 2.12602 13.4003 2.06904C14.0649 1.96521 14.7617 2.03266 15.4323 2.01841C15.9493 2.00742 16.4125 1.95064 16.9089 2.11443C17.224 2.21836 17.563 2.34218 17.8457 2.50552C17.9945 2.59144 18.0612 2.72752 18.1841 2.83723" stroke="#333333" stroke-linecap="round" stroke-linejoin="round"/>
<path d="M18.1841 3.67791C18.1986 2.63475 18.6363 1.54131 19.542 1.25811C19.8725 1.15476 20.2156 1.06772 20.5547 1.01431C20.7872 0.977695 20.8978 1.01143 21.1218 1.11457C21.5945 1.33226 22.056 1.38085 22.3659 1.89838C22.8029 2.62823 23.159 3.54081 23.1838 4.44805C23.1965 4.91296 22.8184 5.25802 22.636 5.63744C22.3962 6.13619 22.0291 6.52357 21.7602 7" stroke="#333333" stroke-linecap="round" stroke-linejoin="round"/>
<path d="M12.2096 7.51307C12.2066 7.47581 12.2117 7.44458 12.2234 7.41767C11.9158 7.20285 13.5511 6.91287 13.7811 6.8704C13.8831 6.85156 14.0144 6.98973 14.0573 7.04619C14.2049 7.24055 14.2186 7.52665 13.974 7.71807C13.719 7.91758 13.2081 8.02076 12.8778 8.05217C12.7647 8.06292 12.3141 8.06787 12.2758 7.9739C12.2204 7.8378 12.2215 7.65921 12.2096 7.51307Z" fill="#333333"/>
<path d="M17.3153 7.05837C17.33 7.02397 17.349 6.99872 17.3719 6.98033C17.1994 6.64711 18.782 7.15071 19.0054 7.22007C19.1045 7.25083 19.1564 7.43417 19.1681 7.5041C19.2085 7.74485 19.0876 8.00449 18.782 8.06021C18.4635 8.11829 17.9633 7.97212 17.6562 7.84633C17.551 7.80324 17.1499 7.59814 17.1597 7.49714C17.1738 7.35086 17.2579 7.19326 17.3153 7.05837Z" fill="#333333"/>
<path d="M10.1841 20C9.98136 21.0184 9.79918 22.0115 9.50141 22.9945C9.24782 23.8316 9.04209 24.7283 8.71784 25.5265C8.61753 25.7734 8.54933 26.0459 8.48244 26.3099C8.41211 26.5875 8.30999 26.8381 8.26216 27.1251C8.16307 27.7197 8.1865 28.3095 8.1865 28.9159C8.1865 29.8422 8.40335 30.7835 8.67412 31.6337C8.79775 32.0218 9.05565 32.3344 9.21556 32.6959C9.26207 32.8011 9.25389 32.8248 9.34335 32.8564C9.43002 32.887 9.63929 32.8626 9.63929 33" stroke="#333333" stroke-linecap="round" stroke-linejoin="round"/>
<path d="M31.6919 30.1474C30.8519 30.8211 30.3438 31.766 29.9363 32.7886C29.7871 33.163 29.5886 33.499 29.4622 33.8817C29.3544 34.2081 29.2929 34.5875 29.2515 34.9301C29.2146 35.2359 29.1989 35.5508 29.1989 35.8594C29.1989 36.1215 29.1355 36.4834 29.2711 36.7143C29.5006 37.1052 29.9508 37.0015 30.3264 36.9397C30.5012 36.9109 30.6778 36.9279 30.8531 36.8993C31.1393 36.8525 31.4139 36.7251 31.6841 36.6164C32.1251 36.4391 32.5869 36.2253 32.958 35.904C33.311 35.5984 33.479 35.1575 33.7012 34.7451C33.9435 34.2951 34.2028 33.8168 34.183 33.2777C34.1627 32.7243 33.9359 32.1483 33.7461 31.6424C33.4733 30.9155 32.9038 30.3555 32.2128 30.1134C31.9217 30.0114 31.4172 29.9575 31.1106 30.0411C31.0681 30.0527 31.0342 30.1237 31.0267 30.1687C30.9993 30.333 31.1721 30.391 31.2706 30.4536" stroke="#333333" stroke-linecap="round" stroke-linejoin="round"/>
<path d="M17.1841 34.6239C17.5671 34.6239 17.9373 34.6114 18.3172 34.5594C18.725 34.5037 19.1245 34.3967 19.5356 34.37C19.7205 34.3579 19.9078 34.3467 20.0921 34.3296C20.2851 34.3118 20.4465 34.2086 20.6282 34.1523C20.9503 34.0523 21.2833 34.0116 21.6049 33.9184C21.76 33.8736 21.8736 33.7943 22.0354 33.8479C22.49 33.9983 22.9159 34.2014 23.3899 34.2974C23.7929 34.379 24.1626 34.5698 24.5759 34.6159C24.965 34.6592 25.5289 34.76 25.7923 35.0795C26.068 35.4141 26.274 35.7143 26.6634 35.9463C26.8146 36.0363 26.9635 36.1911 27.0899 36.3131C27.3038 36.5198 27.6296 36.6254 27.8209 36.8453C27.9873 37.0366 28.1534 37.1619 28.3692 37.2928C28.5464 37.4003 28.6549 37.5743 28.8485 37.6556C29.1855 37.7972 29.4859 37.9365 29.8516 37.9903C30.1294 38.0311 30.3688 37.9307 30.6355 37.9257C31.0896 37.9174 31.4105 37.658 31.8052 37.4621C32.3097 37.2117 32.6527 36.8989 32.9931 36.4543C33.1459 36.2547 33.2775 35.9725 33.3769 35.7407C33.4392 35.5954 33.5213 35.4585 33.578 35.3113C33.6381 35.1553 33.6516 34.9861 33.714 34.8336C33.83 34.5503 33.9563 34.3036 34.0349 34.0071C34.1163 33.7001 34.1614 33.343 34.1791 33.0275C34.2121 32.437 34.0785 31.9286 33.8684 31.3786C33.7692 31.1191 33.515 30.9472 33.4135 30.6852C33.3141 30.4287 33.0563 30.2056 32.8652 30.0159C32.5219 29.6752 32.0281 29.3259 31.5473 29.1996C31.2515 29.1218 30.9494 29.1646 30.6558 29.0726C30.4595 29.011 30.2902 29 30.0872 29" stroke="#333333" stroke-linecap="round" stroke-linejoin="round"/>
<path d="M11.1841 14.891C11.4977 15.054 11.8135 15.2147 12.1213 15.3881C12.518 15.6116 12.9329 15.6787 13.3703 15.7711C13.7501 15.8514 14.1582 15.8886 14.5453 15.9158C14.8759 15.939 15.1938 15.9001 15.5205 15.9708C16.0178 16.0783 16.3954 15.8625 16.8473 15.7528C17.0847 15.6952 17.3238 15.662 17.5588 15.5959C17.6406 15.5729 17.7344 15.5907 17.8185 15.5796C17.9713 15.5596 18.1178 15.4939 18.2702 15.4798C18.4993 15.4586 18.702 15.3859 18.9256 15.3392C19.2415 15.2734 19.5698 14.9975 19.7649 14.7444C19.8751 14.6014 20.0236 14.4446 20.0766 14.2676C20.1186 14.1277 20.1986 13.9034 20.2845 13.7909C20.5473 13.4464 20.5351 12.9642 20.6801 12.5727C20.8158 12.2065 20.848 11.7922 20.904 11.4074C20.9814 10.8744 21.0445 10.3438 21.1118 9.81222C21.1682 9.36644 21.1837 8.94192 21.1837 8.4921C21.1837 8.32094 21.1894 8.15659 21.1557 7.9889C21.1048 7.73519 20.9754 7.53191 20.9679 7.26365C20.9641 7.12811 20.8208 7.03249 20.7881 6.89898C20.7451 6.72394 20.6591 6.55122 20.6082 6.37541C20.5677 6.23535 20.5204 6.10645 20.4643 5.97204C20.3842 5.77982 20.3683 5.56852 20.2845 5.37921C20.1974 5.18266 20.0687 4.94854 19.9228 4.79045C19.8368 4.69727 19.6988 4.6409 19.5931 4.57042C19.4483 4.47391 19.3337 4.3422 19.1694 4.27706C19.0514 4.23029 18.9851 4.2006 18.8816 4.13853C18.8052 4.0927 18.7821 4 18.7018 4" stroke="#333333" stroke-linecap="round" stroke-linejoin="round"/>
<path d="M13.0139 14.1966C12.888 13.9114 12.8787 13.5398 12.7079 13.2848C12.5796 13.0933 12.5371 12.8952 12.5451 12.6681C12.5667 12.0564 12.8726 11.584 13.2137 11.0949C13.406 10.8192 13.6364 10.574 13.8386 10.3057C14.0587 10.0136 14.3631 9.88301 14.6485 9.67096C14.9315 9.46062 15.1162 9.34198 15.468 9.26084C15.8062 9.18283 16.1923 9.14481 16.5153 9.01814C17.0544 8.80668 17.5059 8.98147 18.058 9.1148C18.4007 9.19757 18.7489 9.23569 19.092 9.31854C19.3541 9.38182 19.4917 9.53633 19.7331 9.64708C20.3114 9.91243 20.6524 10.5583 20.5031 11.1768" stroke="#333333" stroke-linecap="round" stroke-linejoin="round"/>
<path d="M18.8239 26.1221C18.4054 26.6395 17.5599 27.2845 17.724 28.0392C17.7818 28.3053 17.8103 28.571 17.909 28.8249C18.0058 29.0737 18.1937 29.3915 18.4503 29.5198C18.6017 29.5955 18.7303 29.7209 18.8868 29.7991C19.1078 29.9096 19.2835 29.9163 19.5118 29.9877C19.9136 30.1133 20.2082 29.6756 20.3639 29.3522C20.6385 28.7819 21.1496 28.228 21.1496 27.5818C21.1496 27.3049 20.9643 26.7191 20.7585 26.5132C20.6156 26.3704 20.3361 26.2847 20.1439 26.2339C20.0316 26.2041 19.7848 26.2195 19.7179 26.1221C19.6103 25.9656 18.9424 26.0593 18.7611 26.0593" stroke="#333333" stroke-width="0.5" stroke-linecap="round" stroke-linejoin="round"/>
<path d="M19.0024 26.5705C19.196 27.0346 19.3899 27.4987 19.5845 27.9624C19.611 28.0257 19.6425 28.0886 19.6543 28.157C19.6686 28.2392 19.661 28.3266 19.661 28.4097C19.661 28.5924 19.745 28.7806 19.7774 28.9585C19.7966 29.0641 19.8747 29.504 19.7807 29.504" stroke="#333333" stroke-width="0.5" stroke-linecap="round" stroke-linejoin="round"/>
<path d="M18.2842 28.4263C18.777 28.0168 19.3361 27.8804 19.9538 27.8044C20.1618 27.7788 20.403 27.771 20.5891 27.678" stroke="#333333" stroke-width="0.5" stroke-linecap="round" stroke-linejoin="round"/>
<path d="M17.3559 21.2124C17.2624 21.519 17.1275 21.7808 17.0732 22.0988C17 22.5274 17.0604 22.9419 17.2961 23.3061C17.5022 23.6247 17.8997 23.9193 18.2839 23.9347C18.7004 23.9513 18.9995 23.7649 19.0289 23.3177C19.0622 22.8091 18.9424 22.3045 18.9424 21.7944C18.9424 21.4024 18.6065 21.1522 18.2306 21.0993C18.0665 21.0762 17.7468 21.034 17.602 21.1359C17.4492 21.2434 17.3602 21.4091 17.2063 21.5117" stroke="#333333" stroke-width="0.5" stroke-linecap="round" stroke-linejoin="round"/>
<path d="M16.6078 17.6803C16.4443 18.0842 16.2332 18.7009 16.6544 19.0306C16.7672 19.1188 16.9171 19.1769 17.0602 19.1769C17.2991 19.1769 17.3721 19.172 17.4094 18.9009C17.4452 18.6408 17.5058 18.3589 17.5058 18.0977C17.5058 17.9223 17.4799 17.656 17.2897 17.5738C17.1524 17.5145 16.934 17.5058 16.7908 17.5456C16.6072 17.5965 16.6653 17.8043 16.6976 17.9497" stroke="#333333" stroke-width="0.5" stroke-linecap="round" stroke-linejoin="round"/>
<path d="M23.3726 30.3122C23.3704 30.6276 23.3856 30.9462 23.2761 31.2468C23.1954 31.4683 23.1071 31.6876 22.9984 31.897C22.8161 32.248 22.6086 32.5997 22.3681 32.9147C22.1869 33.1523 21.9534 33.2942 21.7096 33.4552C21.6333 33.5056 21.482 33.6647 21.397 33.6647" stroke="#333333" stroke-linecap="round" stroke-linejoin="round"/>
<circle cx="16.6841" cy="10.5" r="1.5" fill="#333333"/>
<path d="M9.11884 16.2374C7.29984 18.5079 5.35832 20.6771 3.58335 22.9811C2.37762 24.5463 1.27038 26.2961 0.726828 28.2155C0.29046 29.7565 0.389267 31.3563 1.86944 32.2417C2.6727 32.7222 3.6719 32.9695 4.60244 33.0214C5.04283 33.046 5.47858 33.0058 5.88402 32.8207C6.23058 32.6625 6.30348 32.463 6.54796 32.2185" stroke="#333333" stroke-linecap="round" stroke-linejoin="round"/>
<path d="M10.1612 33.4692C9.33811 34.1023 8.27912 34.5894 7.66748 35.4495C7.15192 36.1745 6.96978 37.0465 6.96493 37.9238C6.95916 38.9694 7.23685 39.6723 8.06122 40.348C8.9987 41.1165 10.3089 41.2513 11.4813 41.2513C12.1535 41.2513 13.3994 41.5006 13.9287 40.9965C14.274 40.6676 14.5126 40.2196 14.7818 39.8308C15.0997 39.3716 15.4804 38.9761 15.8163 38.5338C16.2391 37.9769 16.5558 37.1268 16.3837 36.4184C16.3076 36.1049 16.0672 35.9 16.0672 35.5537" stroke="#333333" stroke-linecap="round" stroke-linejoin="round"/>
<path d="M10.5085 35.6232C10.6835 35.0053 10.8365 34.4523 11.4272 34.1023C12.1385 33.6807 13.1979 33.5614 13.9903 33.778C15.0794 34.0758 15.989 35.2407 15.3954 36.3566C14.9437 37.206 14.1499 38.3926 13.2183 38.7808C11.6743 39.4242 10.3063 38.936 9.04932 37.8467" stroke="#333333" stroke-linecap="round" stroke-linejoin="round"/>
<path d="M19.6108 16.5154C19.6108 17.7019 19.6055 18.7663 19.8579 19.92C19.9707 20.4356 20.1553 21.0717 20.4446 21.5181C20.7092 21.9263 21.0596 22.2417 21.3479 22.6299C22.0938 23.634 22.9277 24.9493 23.0889 26.2121C23.2292 27.3111 23.6948 28.4678 23.5714 29.5782" stroke="#333333" stroke-linecap="round" stroke-linejoin="round"/>
<path d="M20.8613 16.7238C21.7786 19.1588 23.6099 21.229 25.8023 22.6144C26.7201 23.1944 27.9849 23.6856 28.0721 24.9074C28.1368 25.8133 27.5243 26.74 27.0608 27.4783C26.8605 27.7971 26.399 27.5842 26.142 27.8411" stroke="#333333" stroke-linecap="round" stroke-linejoin="round"/>
<path d="M15.4365 13.861C16.245 14.0991 17.1565 14.4213 18.0007 14.1519C18.2027 14.0874 18.3725 13.9561 18.5212 13.8074C18.5772 13.7514 18.5982 13.6797 18.6742 13.6544" stroke="#333333" stroke-linecap="round" stroke-linejoin="round"/>
<path d="M1.32422 29.8982C1.32422 29.4551 1.35451 29.2096 1.75167 28.9512C2.2568 28.6226 2.90422 28.5961 3.48779 28.5961C4.52396 28.5961 5.38766 28.9091 6.02949 29.7174C6.32534 30.0899 6.59176 30.442 6.59176 30.934C6.59176 31.2001 6.27005 31.5554 5.9999 31.5554" stroke="#333333" stroke-linecap="round" stroke-linejoin="round"/>
<path d="M24.9986 28.1227C24.5569 27.8492 24.3504 27.6031 24.3015 27.0705C24.2519 26.53 24.3278 26.0183 24.5711 25.5316C24.862 24.95 25.6221 24.5715 26.2415 24.5715" stroke="#333333" stroke-linecap="round" stroke-linejoin="round"/>
<path d="M9.7283 4.27077C9.01568 3.59774 8.22113 3.20176 7.4069 3.94196C6.7144 4.57151 5.95669 5.18594 6.23634 6.16472" stroke="#333333" stroke-linecap="round" stroke-linejoin="round"/>
<path d="M28.6057 29.5165C28.5942 30.5091 28.5725 32.0716 27.3683 32.3251C26.15 32.5816 24.8651 31.9132 23.833 31.3725" stroke="#333333" stroke-linecap="round" stroke-linejoin="round"/>
<path d="M8.23633 19.0595C8.23633 17.5197 8.67254 16.4686 9.5324 15.1953C10.012 14.4852 10.4635 13.6864 10.6065 14.9013C10.7594 16.2009 10.4067 17.4158 10.2884 18.6875C10.2263 19.355 10.0756 19.955 9.80842 20.5656C9.71048 20.7895 9.5324 20.9729 9.5324 21.2196" stroke="#333333" stroke-linecap="round" stroke-linejoin="round"/>
<path d="M19.145 16.1434C19.9551 17.4755 21.2549 18.0706 22.3852 19.0595" stroke="#333333" stroke-linecap="round" stroke-linejoin="round"/>
<path d="M6.72446 32.0202C6.35478 30.3676 6.26198 28.4879 6.44844 26.8C6.65877 24.8959 7.93293 23.5028 8.97458 21.9877C9.62791 21.0374 10.0991 19.9974 10.7147 19.0355C10.791 18.9162 10.9408 18.6795 11.0447 18.6275" stroke="#333333" stroke-linecap="round" stroke-linejoin="round"/>
<path d="M24.329 25.7559C23.5989 24.5391 22.8943 23.2827 22.1449 22.0837C21.7796 21.4992 21.2308 20.9581 20.5488 20.7876" stroke="#333333" stroke-linecap="round" stroke-linejoin="round"/>
</svg>
